<?xml version="1.0" encoding="UTF-8"?>
<svg version="1.1" xmlns="http://www.w3.org/2000/svg" width="281" height="302">
<path d="M0 0 C2.48380473 1.89072389 4.71485723 3.86388828 7 6 C1.42087838 12.79400573 -4.81890766 18.85034814 -11.13110352 24.9597168 C-12.53560666 26.32163749 -13.93003201 27.69392659 -15.32421875 29.06640625 C-16.15010498 29.87021729 -16.97599121 30.67402832 -17.8269043 31.50219727 C-21.64529375 35.89113587 -23.60795233 40.00647314 -23.34765625 45.9140625 C-22.46929386 51.18423686 -20.21622295 54.92198421 -16.25 58.4375 C-10.99842718 60.96229462 -6.53892379 61.74856222 -1 60 C9.6680323 55.31346558 17.94533625 44.15692022 26 36 C29.85223529 37.58217627 32.49141922 40.18243036 35.39526367 43.07299805 C35.9209343 43.58873886 36.44660492 44.10447968 36.98820496 44.635849 C38.72039495 46.33889733 40.44476527 48.04958076 42.16796875 49.76171875 C43.37054662 50.95278714 44.57312744 52.14385257 45.77571106 53.33491516 C48.29373289 55.83194721 50.80708073 58.33358939 53.31811523 60.83764648 C56.5327397 64.04129502 59.76549262 67.22596791 63.00294018 70.40652752 C65.49317816 72.85947741 67.96985909 75.32578073 70.44304848 77.79590797 C71.62899999 78.97581535 72.81994145 80.15072957 74.01595116 81.32044029 C75.68947326 82.95975696 77.34292924 84.6170751 78.99291992 86.2800293 C79.48798035 86.75666016 79.98304077 87.23329102 80.49310303 87.72436523 C83.95262251 91.26952195 84.86210394 94.0844733 85 99 C83.5 101.9375 83.5 101.9375 81 104 C77.75 104.75 77.75 104.75 74 104 C64.97980493 97.86201357 57.42360262 88.43533328 49.82519531 80.65380859 C47.96828262 78.75467177 46.102133 76.86502574 44.234375 74.9765625 C43.66765076 74.39121735 43.10092651 73.80587219 42.51702881 73.20278931 C39.74813825 70.41600296 37.8666966 68.72108877 34 68 C33.01 69.98 33.01 69.98 32 72 C36.31814311 77.32302039 41.09478076 82.10079449 46.02734375 86.84375 C47.32640485 88.10262421 48.62522875 89.36174325 49.92382812 90.62109375 C51.93781669 92.57320067 53.95682785 94.51828403 55.99438477 96.44580078 C57.98249732 98.33082954 59.94385535 100.24052171 61.90234375 102.15625 C62.51472397 102.72420288 63.12710419 103.29215576 63.75804138 103.87731934 C66.82130894 106.91955089 68.37391856 108.88972088 68.45141602 113.30664062 C68 117 68 117 66.875 118.9375 C64.11757646 120.50004001 62.18527721 120.93754358 59 121 C53.68380343 118.02336634 49.77722428 113.94840364 45.58984375 109.57421875 C44.17440782 108.12378303 42.75837451 106.67393006 41.34179688 105.22460938 C39.12763229 102.94828934 36.91848272 100.66768728 34.71948242 98.37670898 C32.58543915 96.15828057 30.43317189 93.95895391 28.27734375 91.76171875 C27.62201157 91.06914474 26.96667938 90.37657074 26.29148865 89.66300964 C24.58790262 87.94046894 23.00071775 86.36625617 21 85 C18.12041702 84.8846041 18.12041702 84.8846041 16 86 C16.58252669 89.46702131 17.73105352 91.09596972 20.21875 93.54345703 C20.89615234 94.21740509 21.57355469 94.89135315 22.27148438 95.58572388 C23.37459961 96.66090775 23.37459961 96.66090775 24.5 97.7578125 C25.25087891 98.50207489 26.00175781 99.24633728 26.77539062 100.01315308 C29.17661533 102.39095561 31.58776188 104.75837546 34 107.125 C36.41048661 109.50046163 38.81884084 111.87803053 41.22460938 114.25827026 C42.72277452 115.73941629 44.22400406 117.21747013 45.72851562 118.69216919 C46.40591797 119.35981293 47.08332031 120.02745667 47.78125 120.71533203 C48.38001953 121.30283234 48.97878906 121.89033264 49.59570312 122.49563599 C51.59037596 124.63244487 51.98441508 125.88311309 52.375 128.8125 C52 132 52 132 49.875 134.875 C46.45051764 137.40613913 45.16223822 137.47686505 41 137 C38.74731445 135.56298828 38.74731445 135.56298828 36.55078125 133.4453125 C35.69049316 132.62321289 34.83020508 131.80111328 33.94384766 130.95410156 C32.9593111 129.97265451 31.97826061 128.98770276 31 128 C30.44809998 127.44324585 29.89619995 126.8864917 29.32757568 126.31286621 C24.26000583 121.17967466 19.20941376 116.02764984 14.21801758 110.8203125 C12.31908334 108.84301556 10.40186355 106.88513217 8.48046875 104.9296875 C7.61472481 104.01278641 7.61472481 104.01278641 6.73149109 103.07736206 C4.92196044 101.18663218 4.92196044 101.18663218 2 99 C-0.8352213 98.96023362 -0.8352213 98.96023362 -3 100 C-2.42103859 103.55600016 -1.17653464 105.17659518 1.38647461 107.66357422 C2.10069077 108.36465302 2.81490692 109.06573181 3.55076599 109.78805542 C4.32678665 110.53604401 5.10280731 111.28403259 5.90234375 112.0546875 C7.53070072 113.65484437 9.15895267 115.25510811 10.78710938 116.85546875 C13.36271957 119.36891837 15.94157242 121.87895514 18.52319336 124.38623047 C21.01224108 126.80886867 23.48894126 129.24362748 25.96484375 131.6796875 C26.73884018 132.42362762 27.51283661 133.16756775 28.31028748 133.93405151 C35.08407613 140.6135544 35.08407613 140.6135544 36 146 C35.13456339 149.17326755 34.32755853 150.67244147 32 153 C27.46512229 153.89077955 25.29812823 153.76019883 21.28515625 151.41015625 C17.39944463 148.32723153 14.44195444 145.89098539 13.28515625 140.94140625 C13.17948645 138.87697911 13.12372368 136.8093156 13.12109375 134.7421875 C12.91164198 129.99911836 10.4617512 127.41134598 7.1875 124.25 C4.9016148 122.77350219 4.9016148 122.77350219 1.5 122.4375 C-2 121 -2 121 -3.1640625 118.79296875 C-3.80849317 117.00375678 -4.43857264 115.20931518 -5.0546875 113.41015625 C-6.3663512 110.06595582 -7.89553857 108.76389854 -11 107 C-12.37415032 106.60122697 -13.74921108 106.20558255 -15.125 105.8125 C-17.21484375 105.109375 -17.21484375 105.109375 -19 104 C-20.10274556 101.75160049 -20.68476737 99.57303771 -21.3125 97.15234375 C-22.36879655 93.84541535 -24.04162586 92.70928284 -27 91 C-28.35348164 90.622535 -29.70769757 90.24769658 -31.0625 89.875 C-33.91142235 88.92180916 -34.77277616 88.43284279 -36.19140625 85.73046875 C-36.81375483 83.95195795 -37.42445943 82.1693297 -38.0234375 80.3828125 C-39.51634497 76.74011827 -41.45934249 75.56606005 -45 74 C-49.28259776 72.6583563 -52.73131922 72.55378546 -56.875 74.375 C-62.22992866 77.38314718 -66.59387241 81.77445141 -71 86 C-76.609329 84.13022367 -79.18857717 77.9483309 -82 73 C-88.25251017 58.20357678 -88.9216857 42.29266996 -83.29980469 27.10888672 C-77.29977393 12.71258649 -67.60605902 2.44859628 -53.19360352 -3.56958008 C-35.68828758 -10.59769706 -16.3380038 -10.12337585 0 0 Z " fill="#F43E3C" transform="translate(126,30)"/>
<path d="M0 0 C5.91419895 4.86875974 9.76416289 10.59551673 13.5078125 17.22265625 C13.90871094 17.89039062 14.30960937 18.558125 14.72265625 19.24609375 C21.84425165 31.98434363 21.92201889 46.58731288 18.34448242 60.35717773 C15.34966441 70.87756541 9.55548701 78.97651933 2.5078125 87.22265625 C-1.70811681 85.57872249 -4.52241364 82.45910239 -7.63769531 79.30419922 C-8.54565353 78.39667908 -8.54565353 78.39667908 -9.47195435 77.4708252 C-11.467852 75.47353626 -13.45657549 73.46926067 -15.4453125 71.46484375 C-16.82921418 70.07721123 -18.21355862 68.69002015 -19.59832764 67.30325317 C-23.2392197 63.65473025 -26.87406528 60.00024073 -30.50769043 56.34448242 C-34.21764438 52.61405836 -37.93327677 48.88929982 -41.6484375 45.1640625 C-48.93526094 37.85579878 -56.21571015 30.54122009 -63.4921875 23.22265625 C-67.36530066 25.02060344 -69.77910061 27.30881664 -72.7734375 30.37890625 C-73.51648132 31.13330994 -73.51648132 31.13330994 -74.27453613 31.9029541 C-75.85200698 33.50477975 -77.4228472 35.11286655 -78.9921875 36.72265625 C-81.05929338 38.84304132 -83.13297011 40.95667031 -85.2109375 43.06640625 C-86.12810547 44.00677734 -87.04527344 44.94714844 -87.99023438 45.91601562 C-91.34090227 49.00511694 -93.36535402 50.07658524 -97.8671875 50.66015625 C-102.64448247 50.08358617 -104.40926921 48.90711957 -107.4921875 45.22265625 C-108.46817237 41.97349145 -108.28973291 39.49884446 -107.4921875 36.22265625 C-106.34741211 34.49169922 -106.34741211 34.49169922 -104.76953125 32.77734375 C-104.1355542 32.08761475 -103.50157715 31.39788574 -102.84838867 30.68725586 C-101.68206909 29.46727905 -101.68206909 29.46727905 -100.4921875 28.22265625 C-99.79580673 27.49358566 -99.79580673 27.49358566 -99.08535767 26.74978638 C-95.76796436 23.28894829 -92.41120854 19.86917021 -89.03271484 16.46801758 C-87.84167266 15.26544499 -86.65511239 14.05841641 -85.47314453 12.84692383 C-61.76669975 -11.44872585 -29.70648979 -21.18566278 0 0 Z " fill="#F43E3D" transform="translate(217.4921875,33.77734375)"/>
<path d="M0 0 C3.96 0 7.92 0 12 0 C15.68357533 7.8933757 18.93169186 15.84706695 22 24 C25.3 16.08 28.6 8.16 32 0 C35.96 0 39.92 0 44 0 C38.90304926 14.23705228 32.95787135 28.10572235 27 42 C23.7 42 20.4 42 17 42 C15.38035554 38.10890767 13.76305229 34.2168522 12.14770508 30.32397461 C11.60046103 29.00601386 11.05263094 27.68829626 10.50415039 26.37084961 C6.8651954 17.62868551 3.36281668 8.85312962 0 0 Z " fill="#F2403F" transform="translate(5,216)"/>
<path d="M0 0 C2.64 0 5.28 0 8 0 C7.67 0.66 7.34 1.32 7 2 C4.4375 2.625 4.4375 2.625 2 3 C2.57896141 6.55600016 3.82346536 8.17659518 6.38647461 10.66357422 C7.10069077 11.36465302 7.81490692 12.06573181 8.55076599 12.78805542 C9.32678665 13.53604401 10.10280731 14.28403259 10.90234375 15.0546875 C12.53070072 16.65484437 14.15895267 18.25510811 15.78710938 19.85546875 C18.36271957 22.36891837 20.94157242 24.87895514 23.52319336 27.38623047 C26.01224108 29.80886867 28.48894126 32.24362748 30.96484375 34.6796875 C31.73884018 35.42362762 32.51283661 36.16756775 33.31028748 36.93405151 C40.08407613 43.6135544 40.08407613 43.6135544 41 49 C40.13456339 52.17326755 39.32755853 53.67244147 37 56 C32.46512229 56.89077955 30.29812823 56.76019883 26.28515625 54.41015625 C22.39944463 51.32723153 19.44195444 48.89098539 18.28515625 43.94140625 C18.17948645 41.87697911 18.12372368 39.8093156 18.12109375 37.7421875 C17.91164198 32.99911836 15.4617512 30.41134598 12.1875 27.25 C9.9016148 25.77350219 9.9016148 25.77350219 6.5 25.4375 C3 24 3 24 1.8359375 21.79296875 C1.19206929 20.00531841 0.56327078 18.21217265 -0.05078125 16.4140625 C-1.35872567 13.08768533 -2.89927925 11.73063484 -6 10 C-8.32839587 9.16565815 -10.58376535 8.5685258 -13 8 C-13 7.67 -13 7.34 -13 7 C-9.37 7 -5.74 7 -2 7 C-1.34 4.69 -0.68 2.38 0 0 Z " fill="#F13D3B" transform="translate(121,127)"/>
<path d="M0 0 C3.55697906 2.51591202 5.9648719 4.59800136 7.1328125 8.92578125 C7.9453797 14.06915871 7.63205337 17.41280683 4.5625 21.8125 C-0.61568451 26.60232067 -4.79942624 27.16614364 -11.640625 27.09375 C-16.77108756 26.57783756 -19.88493237 24.51531611 -23.375 20.6875 C-24.97552004 16.35668107 -25.08752973 12.37001179 -24.4375 7.8125 C-22.69064422 4.11722816 -21.15203059 2.33532726 -17.875 -0.0625 C-11.85840336 -2.03156799 -5.99025428 -2.06936057 0 0 Z M-14.4375 10.8125 C-14.1075 12.7925 -13.7775 14.7725 -13.4375 16.8125 C-10.65924544 18.10026153 -10.65924544 18.10026153 -7.4375 18.8125 C-4.9375 17.97916667 -4.9375 17.97916667 -3.4375 15.8125 C-2.77083333 12.8125 -2.77083333 12.8125 -3.4375 9.8125 C-8.00176278 5.24823722 -9.9493457 7.03300164 -14.4375 10.8125 Z " fill="#EE4C4B" transform="translate(72.4375,232.1875)"/>
<path d="M0 0 C3.91075925 1.98968453 5.57689098 3.36533646 8 7 C8.33 9.97 8.66 12.94 9 16 C2.73 16 -3.54 16 -10 16 C-7.41175294 19.19969456 -7.41175294 19.19969456 -4.5625 19.3125 C-1.99087192 19.1789825 -1.99087192 19.1789825 -0.0625 17.8125 C2 17 2 17 5.25 18.375 C6.1575 18.91125 7.065 19.4475 8 20 C7.10839269 23.29894706 6.33503019 24.75087499 3.5625 26.8125 C-1.37310272 28.45770091 -5.84725629 28.69776738 -11 28 C-14.91757861 26.0412107 -17.93812058 23.90671889 -20 20 C-21.38242317 13.97658476 -21.18456076 10.51990532 -18 5 C-12.27715203 -0.304103 -7.63356313 -0.79673296 0 0 Z M-8 7 C-8.99 8.485 -8.99 8.485 -10 10 C-7.03 10 -4.06 10 -1 10 C-1.66 9.01 -2.32 8.02 -3 7 C-5.5 6.5 -5.5 6.5 -8 7 Z " fill="#EB7071" transform="translate(234,231)"/>
<path d="M0 0 C2.64674151 2.38852282 4.18719708 4.02705413 5.5625 7.3125 C5.5625 9.6225 5.5625 11.9325 5.5625 14.3125 C-0.3775 14.6425 -6.3175 14.9725 -12.4375 15.3125 C-11.7775 15.9725 -11.1175 16.6325 -10.4375 17.3125 C-6.90532421 16.99139311 -3.80300494 16.43433498 -0.4375 15.3125 C2.75 17.25 2.75 17.25 5.5625 19.3125 C3.14336975 22.59560534 1.38354582 24.82616068 -2.4375 26.3125 C-7.27441409 26.86755572 -11.86355059 26.9822657 -16.375 25.0625 C-22.15580986 20.15757042 -22.15580986 20.15757042 -23.4375 16.3125 C-23.78581525 10.91361357 -23.86850532 7.72379255 -20.4375 3.3125 C-15.00232493 -2.80207196 -7.27285362 -3.57030996 0 0 Z M-11.4375 5.3125 C-11.7675 6.3025 -12.0975 7.2925 -12.4375 8.3125 C-9.7975 8.3125 -7.1575 8.3125 -4.4375 8.3125 C-4.7675 7.3225 -5.0975 6.3325 -5.4375 5.3125 C-7.4175 5.3125 -9.3975 5.3125 -11.4375 5.3125 Z " fill="#F43B3A" transform="translate(206.4375,232.6875)"/>
<path d="M0 0 C4.06219391 0.04520725 6.5258907 0.61209239 9.75 3.25 C11.91926659 6.50389988 11.99080049 7.38395957 11.9453125 11.13671875 C11.93886719 12.07451172 11.93242187 13.01230469 11.92578125 13.97851562 C11.90902344 14.95498047 11.89226562 15.93144531 11.875 16.9375 C11.86597656 17.92556641 11.85695312 18.91363281 11.84765625 19.93164062 C11.82408566 22.37119706 11.78821469 24.81062901 11.75 27.25 C8.45 27.25 5.15 27.25 1.75 27.25 C1.42 21.64 1.09 16.03 0.75 10.25 C-1.725 9.755 -1.725 9.755 -4.25 9.25 C-7.18447357 12.18447357 -6.71158423 15.43259456 -6.875 19.375 C-6.93300781 20.50615234 -6.93300781 20.50615234 -6.9921875 21.66015625 C-7.08651031 23.52303184 -7.16934662 25.38648255 -7.25 27.25 C-10.55 27.25 -13.85 27.25 -17.25 27.25 C-17.25 18.67 -17.25 10.09 -17.25 1.25 C-13.29 1.25 -9.33 1.25 -5.25 1.25 C-3.68966377 -0.31033623 -2.16052864 0.04292441 0 0 Z " fill="#EC4644" transform="translate(148.25,230.75)"/>
<path d="M0 0 C2.97 0 5.94 0 9 0 C9.66 5.61 10.32 11.22 11 17 C12.65 17.33 14.3 17.66 16 18 C18.40119059 14.39821412 18.43771322 11.49133631 18.625 7.3125 C18.66367188 6.61060547 18.70234375 5.90871094 18.7421875 5.18554688 C18.8362334 3.45745345 18.9191968 1.72876325 19 0 C22.3 0 25.6 0 29 0 C29.08138426 2.87557703 29.14067851 5.74882262 29.1875 8.625 C29.21263672 9.43324219 29.23777344 10.24148437 29.26367188 11.07421875 C29.3252459 16.12328917 28.96911728 19.71055942 26 24 C21.18413496 27.94784084 16.30891274 27.48223988 10.3359375 27.36328125 C5.98397033 26.88935508 4.10575453 26.01701869 1 23 C-0.2263757 20.54724859 -0.11415314 18.9494219 -0.09765625 16.2109375 C-0.09443359 15.26992187 -0.09121094 14.32890625 -0.08789062 13.359375 C-0.07951172 12.37453125 -0.07113281 11.3896875 -0.0625 10.375 C-0.05798828 9.38242188 -0.05347656 8.38984375 -0.04882812 7.3671875 C-0.03702145 4.9113984 -0.020554 2.45572896 0 0 Z " fill="#F13D3C" transform="translate(98,232)"/>
<path d="M0 0 C3.3 0 6.6 0 10 0 C10.33 2.97 10.66 5.94 11 9 C12.65 9.33 14.3 9.66 16 10 C16 12.31 16 14.62 16 17 C14.02 17 12.04 17 10 17 C10.33 20.3 10.66 23.6 11 27 C12.32 27.33 13.64 27.66 15 28 C15.66 30.64 16.32 33.28 17 36 C13.30568392 37.84715804 9.03285167 37.47560286 5 37 C2.4314366 35.24585914 1.3937163 34.17589935 0.4140625 31.25 C-0.11327078 28.38449087 -0.09415085 25.66187858 -0.0625 22.75 C-0.05347656 21.67234375 -0.04445312 20.5946875 -0.03515625 19.484375 C-0.02355469 18.66453125 -0.01195312 17.8446875 0 17 C-0.99 17 -1.98 17 -3 17 C-3 14.69 -3 12.38 -3 10 C-2.01 10 -1.02 10 0 10 C0 6.7 0 3.4 0 0 Z " fill="#EF3D3C" transform="translate(166,222)"/>
<path d="M0 0 C3.3 0 6.6 0 10 0 C10 14.52 10 29.04 10 44 C6.7 44 3.4 44 0 44 C0 29.48 0 14.96 0 0 Z " fill="#F53B3A" transform="translate(83,214)"/>
<path d="M0 0 C4.92954889 4.17457293 9.76437855 8.41451794 14.4375 12.875 C15.07365234 13.44863281 15.70980469 14.02226562 16.36523438 14.61328125 C20.76349509 18.85564229 20.76349509 18.85564229 21.44628906 22.15942383 C21.49224949 25.07036009 21.3538225 27.39063903 19.875 29.9375 C17.11757646 31.50004001 15.18527721 31.93754358 12 32 C6.98537185 29.14258142 3.14340528 25.41727372 -0.875 21.3125 C-1.76445312 20.42208008 -1.76445312 20.42208008 -2.671875 19.51367188 C-7 15.14067 -7 15.14067 -7 14 C-6.195625 14.020625 -5.39125 14.04125 -4.5625 14.0625 C-2.06645115 14.29633621 -2.06645115 14.29633621 -1 13 C-0.34 13 0.32 13 1 13 C1 11.68 1 10.36 1 9 C1.66 9 2.32 9 3 9 C2.505 8.2575 2.01 7.515 1.5 6.75 C0 4 0 4 0 0 Z " fill="#F04544" transform="translate(173,119)"/>
<path d="M0 0 C1.051875 -0.00386719 1.051875 -0.00386719 2.125 -0.0078125 C4 0.125 4 0.125 6 1.125 C4.94124926 4.52812738 3.99097846 7.13853231 2 10.125 C0.0546875 10.41796875 0.0546875 10.41796875 -2.125 10.3125 C-3.40375 10.250625 -4.6825 10.18875 -6 10.125 C-7.52106634 13.16713267 -7.37429338 16.40547572 -7.5625 19.75 C-7.60568359 20.45640625 -7.64886719 21.1628125 -7.69335938 21.890625 C-7.79944751 23.63518537 -7.90022889 25.38006697 -8 27.125 C-11.3 27.125 -14.6 27.125 -18 27.125 C-18 18.545 -18 9.965 -18 1.125 C-14 1.125 -10 1.125 -6 1.125 C-3.75487738 0.00243869 -2.48543351 -0.00913762 0 0 Z " fill="#F24443" transform="translate(264,230.875)"/>
<path d="M0 0 C2.9375 2.0625 2.9375 2.0625 5 5 C5.15971935 9.39228213 4.34309686 11.49544579 1.875 15.125 C-1.03564043 18.23695274 -4.13637752 21.13657146 -8 23 C-11.73090599 23.07315502 -13.35133139 22.46089612 -16.375 20.3125 C-18 18 -18 18 -18.6875 15.25 C-17.42252103 9.27009941 -12.683472 5.64241171 -8.4375 1.5 C-5.27997449 -0.44309262 -3.64462728 -0.68336761 0 0 Z " fill="#F14444" transform="translate(95,126)"/>
<path d="M0 0 C3.125 1.875 3.125 1.875 4.125 3.875 C4.70516769 7.50104805 4.78019188 9.89221217 2.703125 13.0078125 C-4.56248881 21.42226269 -4.56248881 21.42226269 -8.91015625 22.2734375 C-11.79804345 22.24005152 -14.26399193 22.18050404 -16.875 20.875 C-18.56770827 17.48958347 -18.76779785 14.47830643 -17.875 10.875 C-14.29439411 5.03407063 -7.40372453 -2.94638017 0 0 Z " fill="#F3403F" transform="translate(78.875,110.125)"/>
<path d="M0 0 C2.90234206 2.06219041 3.82333063 3.29332253 4.6875 6.75 C3.42252103 12.72990059 -1.316528 16.35758829 -5.5625 20.5 C-8.66068504 22.40657541 -10.42046896 22.53312164 -14 22 C-16.3125 20.875 -16.3125 20.875 -18 19 C-19.07143765 15.71425787 -19.33973524 13.86066261 -18.0625 10.625 C-8.06642942 -2.09727165 -8.06642942 -2.09727165 0 0 Z " fill="#F43B3A" transform="translate(112,143)"/>
<path d="M0 0 C2.73883355 1.59029045 2.94967699 2.83465297 3.875 5.875 C4.03158766 9.78969162 3.40349222 10.9205256 1 14 C-6.2350503 21.83657873 -6.2350503 21.83657873 -11.375 22.3125 C-15 22 -15 22 -17.4375 20.4375 C-19.64061761 17.00063653 -19.62323734 15.01641844 -19 11 C-17.37046145 8.60361979 -16.03911514 6.95841137 -14 5 C-13.54238281 4.51015625 -13.08476563 4.0203125 -12.61328125 3.515625 C-8.44026898 -0.55449108 -5.51108956 -0.72276584 0 0 Z " fill="#F23C3A" transform="translate(129,159)"/>
<path d="M0 0 C1.28197266 -0.00386719 1.28197266 -0.00386719 2.58984375 -0.0078125 C4.88930852 0.11569746 6.85890348 0.48079313 9.0625 1.125 C9.3925 2.445 9.7225 3.765 10.0625 5.125 C11.7125 5.125 13.3625 5.125 15.0625 5.125 C16.15245439 11.03439126 16.55017423 14.89348865 13.0625 20.125 C12.70027344 20.67027344 12.33804688 21.21554688 11.96484375 21.77734375 C8.88900096 23.95632889 5.49509925 23.43580469 1.875 23.3125 C1.12541016 23.29896484 0.37582031 23.28542969 -0.39648438 23.27148438 C-2.24379767 23.23618539 -4.09074066 23.18237917 -5.9375 23.125 C-5.2775 22.795 -4.6175 22.465 -3.9375 22.125 C-4.2675 20.805 -4.5975 19.485 -4.9375 18.125 C-3.865 18.16625 -2.7925 18.2075 -1.6875 18.25 C1.71997485 18.1364175 3.26989631 17.91226636 6.0625 16.125 C6.145 14.866875 6.2275 13.60875 6.3125 12.3125 C6.35890625 11.60480469 6.4053125 10.89710938 6.453125 10.16796875 C6.21883997 7.99207482 6.21883997 7.99207482 4.46875 6.34375 C1.19119983 4.68369212 -1.06310868 5.03881696 -4.6875 5.4375 C-5.85796875 5.55738281 -7.0284375 5.67726562 -8.234375 5.80078125 C-9.12640625 5.90777344 -10.0184375 6.01476562 -10.9375 6.125 C-10.9375 5.135 -10.9375 4.145 -10.9375 3.125 C-7.09889106 0.56592738 -4.51152646 -0.0135685 0 0 Z M9.0625 6.125 C10.0625 8.125 10.0625 8.125 10.0625 8.125 Z " fill="#EE3E3B" transform="translate(63.9375,233.875)"/>
<path d="M0 0 C3.96 0 7.92 0 12 0 C12 0.66 12 1.32 12 2 C12.969375 2.309375 13.93875 2.61875 14.9375 2.9375 C18 4 18 4 19 5 C19 7.64 19 10.28 19 13 C12.4 13 5.8 13 -1 13 C-1 14.32 -1 15.64 -1 17 C-3.31 16.34 -5.62 15.68 -8 15 C-8.25 12.75 -8.25 12.75 -8 10 C-5.7522146 7.20964571 -4.42269984 6.14089995 -1 5 C-0.67 6.32 -0.34 7.64 0 9 C3.96 9 7.92 9 12 9 C12 7.35 12 5.7 12 4 C11.443125 4.185625 10.88625 4.37125 10.3125 4.5625 C7.55735553 5.08374355 5.67673775 4.7957869 3 4 C2.67 3.34 2.34 2.68 2 2 C1.01 2.495 1.01 2.495 0 3 C0 2.01 0 1.02 0 0 Z " fill="#F53B39" transform="translate(223,233)"/>
<path d="M0 0 C2.64 0 5.28 0 8 0 C10 3 10 3 10 7 C9.34 7 8.68 7 8 7 C8 12.94 8 18.88 8 25 C5.36 25 2.72 25 0 25 C0 16.75 0 8.5 0 0 Z " fill="#E74140" transform="translate(132,233)"/>
<path d="M0 0 C3.3 0 6.6 0 10 0 C10.33 3.3 10.66 6.6 11 10 C10.34 10 9.68 10 9 10 C9 7.03 9 4.06 9 1 C7.02 1 5.04 1 3 1 C3 4.3 3 7.6 3 11 C2.01 11 1.02 11 0 11 C-0.66 12.65 -1.32 14.3 -2 16 C-1.01 16 -0.02 16 1 16 C1.10957031 16.89203125 1.21914062 17.7840625 1.33203125 18.703125 C1.49058594 19.87359375 1.64914063 21.0440625 1.8125 22.25 C2.03873047 23.99023438 2.03873047 23.99023438 2.26953125 25.765625 C3.00589399 29.02609745 3.67781693 30.6384579 6 33 C6.99 33.33 7.98 33.66 9 34 C8.814375 33.071875 8.62875 32.14375 8.4375 31.1875 C7.68258045 26.09179306 8.40247867 21.08352762 9 16 C10.98 16 12.96 16 15 16 C15 14.02 15 12.04 15 10 C15.33 10 15.66 10 16 10 C16 12.31 16 14.62 16 17 C14.02 17 12.04 17 10 17 C10.33 20.3 10.66 23.6 11 27 C12.32 27.33 13.64 27.66 15 28 C15.66 30.64 16.32 33.28 17 36 C13.30568392 37.84715804 9.03285167 37.47560286 5 37 C2.4314366 35.24585914 1.3937163 34.17589935 0.4140625 31.25 C-0.11327078 28.38449087 -0.09415085 25.66187858 -0.0625 22.75 C-0.05347656 21.67234375 -0.04445312 20.5946875 -0.03515625 19.484375 C-0.02355469 18.66453125 -0.01195312 17.8446875 0 17 C-0.99 17 -1.98 17 -3 17 C-3 14.69 -3 12.38 -3 10 C-2.01 10 -1.02 10 0 10 C0 6.7 0 3.4 0 0 Z " fill="#E86B69" transform="translate(166,222)"/>
<path d="M0 0 C3.3 0 6.6 0 10 0 C10 14.52 10 29.04 10 44 C6.7 44 3.4 44 0 44 C0 29.48 0 14.96 0 0 Z M2 2 C2 15.53 2 29.06 2 43 C3.98 43 5.96 43 8 43 C8 29.47 8 15.94 8 2 C6.02 2 4.04 2 2 2 Z " fill="#E57472" transform="translate(83,214)"/>
<path d="M0 0 C0.33 0 0.66 0 1 0 C1 2.31 1 4.62 1 7 C-4.94 7.33 -10.88 7.66 -17 8 C-16.34 8.66 -15.68 9.32 -15 10 C-11.46782421 9.67889311 -8.36550494 9.12183498 -5 8 C-1.8125 9.9375 -1.8125 9.9375 1 12 C-1.41913025 15.28310534 -3.17895418 17.51366068 -7 19 C-11.91477242 19.56399028 -16.48587577 19.64891038 -21.0625 17.6875 C-23 16 -23 16 -25 13 C-20.25 13.75 -20.25 13.75 -18 16 C-14.43407381 15.83582968 -14.43407381 15.83582968 -11 15 C-10.67 14.34 -10.34 13.68 -10 13 C-11.3303125 13.061875 -11.3303125 13.061875 -12.6875 13.125 C-15.97277013 13.00102754 -18.05449295 12.38612096 -21 11 C-20.34 9.35 -19.68 7.7 -19 6 C-12.73 6 -6.46 6 0 6 C0 4.02 0 2.04 0 0 Z " fill="#F17472" transform="translate(211,240)"/>
<path d="M0 0 C5.75 -0.125 5.75 -0.125 8 1 C9.125 3.0625 9.125 3.0625 10 5 C10.99 5 11.98 5 13 5 C13 7.97 13 10.94 13 14 C9.23312136 15.88343932 7.97041037 16.22057835 4 16 C2.875 10.25 2.875 10.25 4 8 C2.02 8.66 0.04 9.32 -2 10 C-2.12375 9.360625 -2.2475 8.72125 -2.375 8.0625 C-2.684375 7.0415625 -2.684375 7.0415625 -3 6 C-3.66 5.67 -4.32 5.34 -5 5 C-3.625 3.5 -3.625 3.5 -2 2 C-1.34 2 -0.68 2 0 2 C0 1.34 0 0.68 0 0 Z " fill="#F33C3A" transform="translate(146,166)"/>
<path d="M0 0 C12.33115061 9.95977549 12.33115061 9.95977549 13.6875 16.125 C12.74181107 20.07969918 11.24946775 21.59821949 8 24 C5.0625 24.625 5.0625 24.625 2 24 C-0.26035066 22.50682986 -2.0226329 20.88320676 -4 19 C-1.3333581 17.66667905 0.16680303 18.32897967 3 19 C3.33 15.7 3.66 12.4 4 9 C5.32 9.66 6.64 10.32 8 11 C8 10.34 8 9.68 8 9 C5.69 8.34 3.38 7.68 1 7 C0.67 4.69 0.34 2.38 0 0 Z " fill="#F73B3C" transform="translate(165,143)"/>
<path d="M0 0 C0 0.33 0 0.66 0 1 C-1.65 1 -3.3 1 -5 1 C-5.226875 1.556875 -5.45375 2.11375 -5.6875 2.6875 C-7.36718835 5.6469509 -9.54133285 7.66126784 -12 10 C-12.556875 10.598125 -13.11375 11.19625 -13.6875 11.8125 C-15 13 -15 13 -17 13 C-17 14.32 -17 15.64 -17 17 C-16.01 17.33 -15.02 17.66 -14 18 C-14 18.66 -14 19.32 -14 20 C-11.00847418 19.22520264 -11.00847418 19.22520264 -8 18 C-7.67 17.01 -7.34 16.02 -7 15 C-6.01 15.33 -5.02 15.66 -4 16 C-4 15.34 -4 14.68 -4 14 C-3.34 14 -2.68 14 -2 14 C-2 13.01 -2 12.02 -2 11 C-1.01 11 -0.02 11 1 11 C1.95024979 7.30458414 1.95024979 4.69541586 1 1 C3.33146891 2.74860168 3.95726397 3.81623507 4.625 6.6875 C3.48506471 12.72915705 -1.2994138 16.34089151 -5.5625 20.5 C-8.66068504 22.40657541 -10.42046896 22.53312164 -14 22 C-16.3125 20.875 -16.3125 20.875 -18 19 C-19.07143765 15.71425787 -19.33973524 13.86066261 -18.0625 10.625 C-8.41991925 -1.6473755 -8.41991925 -1.6473755 0 0 Z " fill="#E86564" transform="translate(112,143)"/>
<path d="M0 0 C0.61875 0.495 1.2375 0.99 1.875 1.5 C-1.4080098 3.1415049 -4.55045033 2.01888624 -8.125 1.5 C-7.465 2.82 -6.805 4.14 -6.125 5.5 C-6.929375 5.62375 -7.73375 5.7475 -8.5625 5.875 C-9.8309375 6.184375 -9.8309375 6.184375 -11.125 6.5 C-11.455 7.16 -11.785 7.82 -12.125 8.5 C-9.485 8.5 -6.845 8.5 -4.125 8.5 C-3.795 7.84 -3.465 7.18 -3.125 6.5 C-3.125 7.49 -3.125 8.48 -3.125 9.5 C-6.00711302 10.46070434 -7.82350044 10.60581883 -10.8125 10.5625 C-12.02486328 10.54896484 -12.02486328 10.54896484 -13.26171875 10.53515625 C-14.18404297 10.51775391 -14.18404297 10.51775391 -15.125 10.5 C-15.785 8.85 -16.445 7.2 -17.125 5.5 C-18.115 5.83 -19.105 6.16 -20.125 6.5 C-20.455 10.46 -20.785 14.42 -21.125 18.5 C-20.465 18.83 -19.805 19.16 -19.125 19.5 C-20.115 19.5 -21.105 19.5 -22.125 19.5 C-23.72131321 14.71106036 -23.95675756 10.32986662 -21.875 5.75 C-16.23572678 -1.50049414 -8.68976205 -4.17108578 0 0 Z " fill="#EC3E3E" transform="translate(206.125,232.5)"/>
<path d="M0 0 C2.25 0.0625 2.25 0.0625 5 1 C8.03789974 5.3036913 9.48255634 8.69620248 10 14 C9.34 14 8.68 14 8 14 C8.33 14.66 8.66 15.32 9 16 C11.52733235 16.65555119 11.52733235 16.65555119 14 17 C14 17.33 14 17.66 14 18 C10.36614151 18.5299377 8.17165911 18.76169489 5.03515625 16.72265625 C2.9353371 14.8889528 0.96015994 12.98239238 -1 11 C-1.75410156 10.25878906 -2.50820312 9.51757812 -3.28515625 8.75390625 C-5.20737835 6.85202513 -7.11070855 4.93451385 -9 3 C-5.93109813 1.46554906 -3.29905734 2.45015711 0 3 C0 2.01 0 1.02 0 0 Z " fill="#F43D3D" transform="translate(193,116)"/>
<path d="M0 0 C1.051875 -0.00386719 1.051875 -0.00386719 2.125 -0.0078125 C4 0.125 4 0.125 6 1.125 C4.94124926 4.52812738 3.99097846 7.13853231 2 10.125 C0.125 10.34765625 0.125 10.34765625 -2 10.1875 C-4.08238893 9.99578993 -4.08238893 9.99578993 -6 10.125 C-6.66 10.785 -7.32 11.445 -8 12.125 C-8 10.805 -8 9.485 -8 8.125 C-3.545 7.63 -3.545 7.63 1 7.125 C1 6.465 1 5.805 1 5.125 C1.66 5.125 2.32 5.125 3 5.125 C3 4.135 3 3.145 3 2.125 C0.36 2.125 -2.28 2.125 -5 2.125 C-5 2.785 -5 3.445 -5 4.125 C-6.32 4.125 -7.64 4.125 -9 4.125 C-9 3.465 -9 2.805 -9 2.125 C-11.31 2.125 -13.62 2.125 -16 2.125 C-16 10.045 -16 17.965 -16 26.125 C-14.02 26.125 -12.04 26.125 -10 26.125 C-10 21.835 -10 17.545 -10 13.125 C-9.67 13.125 -9.34 13.125 -9 13.125 C-9 17.745 -9 22.365 -9 27.125 C-11.97 27.125 -14.94 27.125 -18 27.125 C-18 18.545 -18 9.965 -18 1.125 C-14 1.125 -10 1.125 -6 1.125 C-3.75487738 0.00243869 -2.48543351 -0.00913762 0 0 Z " fill="#E46564" transform="translate(264,230.875)"/>
<path d="M0 0 C1.5625 1.5625 1.5625 1.5625 3 4 C2.6875 7.75 2.6875 7.75 2 11 C3.65 10.34 5.3 9.68 7 9 C5.54368932 15.55339806 5.54368932 15.55339806 3.25 17.4375 C0.44205747 18.13948563 -2.11779715 18.13100922 -5 18 C-7.06262444 14.66806822 -8.14314241 12.87674725 -7.5 8.9375 C-5.79233338 5.59331954 -3.78266228 3.49726102 -1 1 C-0.67 0.67 -0.34 0.34 0 0 Z " fill="#EF4745" transform="translate(119,161)"/>
<path d="M0 0 C3.96 0 7.92 0 12 0 C11.04235345 2.56275853 10.0839064 5.12521289 9.125 7.6875 C8.85558594 8.40873047 8.58617187 9.12996094 8.30859375 9.87304688 C6.91331397 13.59946483 5.49797083 17.31324655 4 21 C3.67 21 3.34 21 3 21 C3.01160156 20.18015625 3.02320313 19.3603125 3.03515625 18.515625 C3.04417969 17.43796875 3.05320312 16.3603125 3.0625 15.25 C3.07410156 14.18265625 3.08570313 13.1153125 3.09765625 12.015625 C3.01510087 9.46631499 2.74617558 7.42066409 2 5 C1.34 5 0.68 5 0 5 C0 6.65 0 8.3 0 10 C-0.66 10 -1.32 10 -2 10 C-2 10.99 -2 11.98 -2 13 C-2.66 13 -3.32 13 -4 13 C-4 14.65 -4 16.3 -4 18 C-4.66 17.67 -5.32 17.34 -6 17 C-4.33846988 11.14340094 -2.52958084 5.5409866 0 0 Z " fill="#EB6262" transform="translate(37,216)"/>
<path d="M0 0 C0.33 1.32 0.66 2.64 1 4 C0.34 4 -0.32 4 -1 4 C-1.103125 4.598125 -1.20625 5.19625 -1.3125 5.8125 C-2 8 -2 8 -3.5625 9.4375 C-5.27937403 10.97743496 -5.27937403 10.97743496 -5.1875 13.6875 C-5.125625 14.450625 -5.06375 15.21375 -5 16 C-6.0725 16.144375 -7.145 16.28875 -8.25 16.4375 C-9.4875 16.623125 -10.725 16.80875 -12 17 C-12.763125 17.061875 -13.52625 17.12375 -14.3125 17.1875 C-16.37370921 17.93586633 -16.37370921 17.93586633 -17.0625 21 C-17.371875 21.99 -17.68125 22.98 -18 24 C-18.99 24.33 -19.98 24.66 -21 25 C-20.01 27.64 -19.02 30.28 -18 33 C-18.99 33 -19.98 33 -21 33 C-22.52951026 31.47048974 -22.3539351 30.06639586 -22.5 27.9375 C-22.35398636 21.71731891 -19.31321495 19.15493183 -15 15 C-13.72930673 13.72380292 -12.46132465 12.44490349 -11.1953125 11.1640625 C-7.48595876 7.41985221 -3.75023669 3.70322312 0 0 Z " fill="#EA4D4A" transform="translate(132,47)"/>
<path d="M0 0 C1.32 0 2.64 0 4 0 C4.66 0.66 5.32 1.32 6 2 C6.33 1.34 6.66 0.68 7 0 C8.32 0 9.64 0 11 0 C12.17571451 3.67410785 12.07366746 7.16929183 12 11 C11.443125 10.814375 10.88625 10.62875 10.3125 10.4375 C7.57681481 9.91993794 5.70010024 10.39247745 3 11 C1.68 11 0.36 11 -1 11 C-0.67 7.37 -0.34 3.74 0 0 Z " fill="#1F1F1F" transform="translate(120,274)"/>
<path d="M0 0 C1.23556641 0.01740234 1.23556641 0.01740234 2.49609375 0.03515625 C3.32238281 0.04417969 4.14867187 0.05320313 5 0.0625 C5.63808594 0.07410156 6.27617187 0.08570313 6.93359375 0.09765625 C6.93359375 0.42765625 6.93359375 0.75765625 6.93359375 1.09765625 C5.65484375 1.18015625 4.37609375 1.26265625 3.05859375 1.34765625 C0.88025957 1.55635556 0.88025957 1.55635556 -1.06640625 2.09765625 C-2.65634955 4.01830418 -2.65634955 4.01830418 -3.06640625 6.09765625 C-1.08640625 6.09765625 0.89359375 6.09765625 2.93359375 6.09765625 C3.26359375 7.08765625 3.59359375 8.07765625 3.93359375 9.09765625 C4.59359375 9.09765625 5.25359375 9.09765625 5.93359375 9.09765625 C5.60359375 15.03765625 5.27359375 20.97765625 4.93359375 27.09765625 C4.60359375 27.09765625 4.27359375 27.09765625 3.93359375 27.09765625 C3.60359375 21.48765625 3.27359375 15.87765625 2.93359375 10.09765625 C0.45859375 9.60265625 0.45859375 9.60265625 -2.06640625 9.09765625 C-5.00087982 12.03212982 -4.52799048 15.28025081 -4.69140625 19.22265625 C-4.74941406 20.35380859 -4.74941406 20.35380859 -4.80859375 21.5078125 C-4.90291656 23.37068809 -4.98575287 25.2341388 -5.06640625 27.09765625 C-5.39640625 27.09765625 -5.72640625 27.09765625 -6.06640625 27.09765625 C-6.06640625 21.15765625 -6.06640625 15.21765625 -6.06640625 9.09765625 C-5.40640625 9.09765625 -4.74640625 9.09765625 -4.06640625 9.09765625 C-4.72640625 6.78765625 -5.38640625 4.47765625 -6.06640625 2.09765625 C-8.70640625 2.09765625 -11.34640625 2.09765625 -14.06640625 2.09765625 C-14.06640625 10.34765625 -14.06640625 18.59765625 -14.06640625 27.09765625 C-14.39640625 27.09765625 -14.72640625 27.09765625 -15.06640625 27.09765625 C-15.06640625 18.51765625 -15.06640625 9.93765625 -15.06640625 1.09765625 C-11.10640625 1.09765625 -7.14640625 1.09765625 -3.06640625 1.09765625 C-2.06640625 0.09765625 -2.06640625 0.09765625 0 0 Z " fill="#EC9290" transform="translate(146.06640625,230.90234375)"/>
<path d="M0 0 C2.64 0 5.28 0 8 0 C7.67 0.66 7.34 1.32 7 2 C4.4375 2.625 4.4375 2.625 2 3 C2.56959153 6.62613199 3.92374534 8.25517741 6.5625 10.75 C7.20316406 11.36359375 7.84382813 11.9771875 8.50390625 12.609375 C8.99761719 13.06828125 9.49132812 13.5271875 10 14 C9.360625 14.12375 8.72125 14.2475 8.0625 14.375 C7.381875 14.58125 6.70125 14.7875 6 15 C5.67 15.66 5.34 16.32 5 17 C2.9375 17.625 2.9375 17.625 1 18 C0.46375 17.071875 -0.0725 16.14375 -0.625 15.1875 C-3.22411512 11.69921392 -5.04294678 10.64877217 -9 9 C-10.32 8.34 -11.64 7.68 -13 7 C-9.37 7 -5.74 7 -2 7 C-1.34 4.69 -0.68 2.38 0 0 Z " fill="#EB5150" transform="translate(121,127)"/>
<path d="M0 0 C3.3 0 6.6 0 10 0 C10.08138426 2.87557703 10.14067851 5.74882262 10.1875 8.625 C10.21263672 9.43324219 10.23777344 10.24148437 10.26367188 11.07421875 C10.3252459 16.12328917 9.96911728 19.71055942 7 24 C3.08371015 27.2464881 -0.19693848 27.38086386 -5.1875 27.3125 C-6.41855469 27.30863281 -7.64960937 27.30476563 -8.91796875 27.30078125 C-12 27 -12 27 -14 25 C-8.06 25 -2.12 25 4 25 C4.33 23.68 4.66 22.36 5 21 C5.66 21.33 6.32 21.66 7 22 C7.33 15.07 7.66 8.14 8 1 C5.69 1 3.38 1 1 1 C1 6.61 1 12.22 1 18 C-0.32 18.33 -1.64 18.66 -3 19 C-2.68289062 18.49984375 -2.36578125 17.9996875 -2.0390625 17.484375 C-0.6351235 14.12758852 -0.53774346 10.83713706 -0.375 7.25 C-0.31699219 6.20392578 -0.31699219 6.20392578 -0.2578125 5.13671875 C-0.16401376 3.42489182 -0.08093826 1.71248318 0 0 Z " fill="#E38281" transform="translate(117,232)"/>
<path d="M0 0 C1.65 0.33 3.3 0.66 5 1 C5.33 1.66 5.66 2.32 6 3 C6.33 2.01 6.66 1.02 7 0 C8.32 0 9.64 0 11 0 C12.20272819 2.40545638 12.10071472 3.94996953 12.0625 6.625 C12.05347656 7.44226563 12.04445313 8.25953125 12.03515625 9.1015625 C12.02355469 9.72804688 12.01195313 10.35453125 12 11 C11.3915625 10.82597656 10.783125 10.65195312 10.15625 10.47265625 C7.48999432 9.88820528 5.64546505 10.40477036 3 11 C1.68 11 0.36 11 -1 11 C-0.67 7.37 -0.34 3.74 0 0 Z " fill="#646464" transform="translate(99,274)"/>
<path d="M0 0 C1.98 0 3.96 0 6 0 C6.02710123 2.5625718 6.04688771 5.12485365 6.0625 7.6875 C6.07087891 8.40873047 6.07925781 9.12996094 6.08789062 9.87304688 C6.10543632 13.71555382 5.93524221 17.26639526 5 21 C4.01 20.67 3.02 20.34 2 20 C2 19.34 2 18.68 2 18 C1.34 18 0.68 18 0 18 C0 12.06 0 6.12 0 0 Z " fill="#F43B3A" transform="translate(119,233)"/>
<path d="M0 0 C1.52299523 2.93720508 2.80100302 5.9168649 4 9 C3.34 9 2.68 9 2 9 C1.87625 9.94875 1.7525 10.8975 1.625 11.875 C1 15 1 15 -1 17 C-1 16.01 -1 15.02 -1 14 C-2.65 14 -4.3 14 -6 14 C-6.33 13.01 -6.66 12.02 -7 11 C-7.66 10.34 -8.32 9.68 -9 9 C-8.67 8.34 -8.34 7.68 -8 7 C-7.34 7 -6.68 7 -6 7 C-5.7525 6.21625 -5.505 5.4325 -5.25 4.625 C-3.84610901 1.67682892 -2.99324263 1.0975223 0 0 Z " fill="#F33C3A" transform="translate(172,119)"/>
<path d="M0 0 C5.12440354 4.31914013 10.06770057 8.76795915 14.875 13.4375 C15.55046875 14.06720703 16.2259375 14.69691406 16.921875 15.34570312 C20.16330152 18.51227743 21.82373282 20.36853736 23.06640625 24.8203125 C23 28 23 28 21.0625 30.4375 C20.381875 30.953125 19.70125 31.46875 19 32 C19 30.68 19 29.36 19 28 C19.66 28 20.32 28 21 28 C20.67 26.68 20.34 25.36 20 24 C18.35 23.67 16.7 23.34 15 23 C15 20.69 15 18.38 15 16 C13.35 15.67 11.7 15.34 10 15 C9.67 14.01 9.34 13.02 9 12 C8.01 12 7.02 12 6 12 C6.33 10.68 6.66 9.36 7 8 C5.35 7.67 3.7 7.34 2 7 C1.34 4.69 0.68 2.38 0 0 Z " fill="#EA5D5F" transform="translate(188,101)"/>
<path d="M0 0 C3 2 3 2 4 5 C6.31 5.33 8.62 5.66 11 6 C11.33 7.65 11.66 9.3 12 11 C13.65 11 15.3 11 17 11 C17 11.66 17 12.32 17 13 C16.34 13.66 15.68 14.32 15 15 C17.475 15.495 17.475 15.495 20 16 C19.67 17.65 19.34 19.3 19 21 C20.32 21 21.64 21 23 21 C23 22.65 23 24.3 23 26 C17.19108254 21.18132753 11.86934448 15.98743592 6.5625 10.625 C5.32209961 9.37783203 5.32209961 9.37783203 4.05664062 8.10546875 C2.03544469 6.0725896 0.01663665 4.03740037 -2 2 C-1.34 1.34 -0.68 0.68 0 0 Z " fill="#EA6B6A" transform="translate(156,55)"/>
<path d="M0 0 C1.32 0.66 2.64 1.32 4 2 C4 7.61 4 13.22 4 19 C2.02 19 0.04 19 -2 19 C-2.05394705 16.39555652 -2.09364469 13.79223002 -2.125 11.1875 C-2.14175781 10.44951172 -2.15851563 9.71152344 -2.17578125 8.95117188 C-2.21074628 5.08753574 -2.19397555 3.29096332 0 0 Z " fill="#F63B3A" transform="translate(135,238)"/>
<path d="M0 0 C2.12011219 1.43107573 3.84013637 2.75099243 5.5 4.6875 C5.17 5.6775 4.84 6.6675 4.5 7.6875 C3.18 7.3575 1.86 7.0275 0.5 6.6875 C0.5 5.3675 0.5 4.0475 0.5 2.6875 C-1.72889496 2.63321027 -3.95817471 2.59457662 -6.1875 2.5625 C-7.42886719 2.53929687 -8.67023437 2.51609375 -9.94921875 2.4921875 C-15.1134647 2.77624943 -17.98278103 4.00279441 -21.5 7.6875 C-22.16 7.6875 -22.82 7.6875 -23.5 7.6875 C-22.58651532 4.03356128 -21.56236171 2.73659326 -18.5625 0.375 C-12.69228406 -2.64607347 -6.04636814 -2.26738805 0 0 Z " fill="#EA6365" transform="translate(72.5,232.3125)"/>
<path d="M0 0 C1.32 0 2.64 0 4 0 C4.33 0.66 4.66 1.32 5 2 C5.33 1.34 5.66 0.68 6 0 C7.32 0 8.64 0 10 0 C10 3.63 10 7.26 10 11 C8.35 10.67 6.7 10.34 5 10 C4.67 9.34 4.34 8.68 4 8 C3.67 8.99 3.34 9.98 3 11 C2.01 11 1.02 11 0 11 C0 7.37 0 3.74 0 0 Z " fill="#464646" transform="translate(159,274)"/>
<path d="M0 0 C2.4375 1 2.4375 1 4.375 3.25 C5.4375 6 5.4375 6 4.8125 8.6875 C3.4375 11 3.4375 11 0.4375 13 C-2.88490324 12.6758631 -4.17026303 12.39223697 -6.5625 10 C-6.9375 6.5625 -6.9375 6.5625 -6.5625 3 C-4.40969338 0.44852548 -3.32965369 0 0 0 Z M-2.5625 4 C-2.8925 5.32 -3.2225 6.64 -3.5625 8 C-2.2425 8.33 -0.9225 8.66 0.4375 9 C0.7675 7.68 1.0975 6.36 1.4375 5 C0.1175 4.67 -1.2025 4.34 -2.5625 4 Z " fill="#4E4E4E" transform="translate(85.5625,273)"/>
<path d="M0 0 C0.33 1.32 0.66 2.64 1 4 C-5.27 4 -11.54 4 -18 4 C-15.41175294 7.19969456 -15.41175294 7.19969456 -12.5625 7.3125 C-9.99087192 7.1789825 -9.99087192 7.1789825 -8.0625 5.8125 C-6 5 -6 5 -2.75 6.375 C-1.8425 6.91125 -0.935 7.4475 0 8 C-1.24976756 11.65316671 -1.67098753 12.78065836 -5 15 C-5.99 15 -6.98 15 -8 15 C-8 14.01 -8 13.02 -8 12 C-7.01 12 -6.02 12 -5 12 C-5 11.34 -5 10.68 -5 10 C-5.84304687 10.01160156 -6.68609375 10.02320313 -7.5546875 10.03515625 C-8.65039062 10.04417969 -9.74609375 10.05320313 -10.875 10.0625 C-11.96554688 10.07410156 -13.05609375 10.08570313 -14.1796875 10.09765625 C-17 10 -17 10 -19 9 C-19 7.02 -19 5.04 -19 3 C-12.73 3 -6.46 3 0 3 C0 2.01 0 1.02 0 0 Z " fill="#F19090" transform="translate(242,243)"/>
<path d="M0 0 C2.97 0 5.94 0 9 0 C9.66 5.61 10.32 11.22 11 17 C13.475 17.99 13.475 17.99 16 19 C16 19.33 16 19.66 16 20 C10.375 20.25 10.375 20.25 7 18 C6.9437721 15.03471821 7.04316196 12.31149974 7.3125 9.375 C7.37373047 8.57320312 7.43496094 7.77140625 7.49804688 6.9453125 C7.65148508 4.96241876 7.82395693 2.98101481 8 1 C5.69 1 3.38 1 1 1 C1 3.97 1 6.94 1 10 C1.66 10 2.32 10 3 10 C2.979375 11.216875 2.95875 12.43375 2.9375 13.6875 C2.93175884 16.91977322 3.21233685 19.84934741 4 23 C4.99 23.33 5.98 23.66 7 24 C5.68 24.33 4.36 24.66 3 25 C0.3084483 21.93281075 -0.3672868 20.07834493 -0.29296875 16.015625 C-0.28330078 15.08105469 -0.27363281 14.14648438 -0.26367188 13.18359375 C-0.23853516 12.21550781 -0.21339844 11.24742187 -0.1875 10.25 C-0.17396484 9.26644531 -0.16042969 8.28289062 -0.14648438 7.26953125 C-0.11119197 4.84611923 -0.05738659 2.42298951 0 0 Z " fill="#D25657" transform="translate(98,232)"/>
<path d="M0 0 C1.32 0 2.64 0 4 0 C4 2.64 4 5.28 4 8 C4.66 8 5.32 8 6 8 C6 5.36 6 2.72 6 0 C7.32 0 8.64 0 10 0 C10.08131463 1.43655854 10.13933559 2.8744483 10.1875 4.3125 C10.22230469 5.11300781 10.25710937 5.91351563 10.29296875 6.73828125 C10 9 10 9 8.68359375 10.8046875 C7 12 7 12 3.875 11.8125 C2.92625 11.544375 1.9775 11.27625 1 11 C-0.20272819 8.59454362 -0.10071472 7.05003047 -0.0625 4.375 C-0.05347656 3.55773437 -0.04445312 2.74046875 -0.03515625 1.8984375 C-0.02355469 1.27195312 -0.01195312 0.64546875 0 0 Z " fill="#5F5F5F" transform="translate(140,274)"/>
<path d="M0 0 C3.96 0 7.92 0 12 0 C17.22321429 11.11607143 17.22321429 11.11607143 18 16 C16.68 15.34 15.36 14.68 14 14 C14 12.35 14 10.7 14 9 C13.34 9 12.68 9 12 9 C11.34 7.02 10.68 5.04 10 3 C8.68 3.33 7.36 3.66 6 4 C6 6.97 6 9.94 6 13 C2.52167425 9.52167425 1.59930761 4.58468182 0 0 Z " fill="#E75A5B" transform="translate(5,216)"/>
<path d="M0 0 C7.59002386 9.23814333 8.61762016 21.50939231 8 33 C7.49407182 36.37872038 6.82151645 39.68459434 6 43 C4.9375 41.1875 4.9375 41.1875 4 39 C4.33 38.01 4.66 37.02 5 36 C5.0806622 34.51876453 5.10761193 33.03417796 5.09765625 31.55078125 C5.09443359 30.70322266 5.09121094 29.85566406 5.08789062 28.98242188 C5.07951172 28.10134766 5.07113281 27.22027344 5.0625 26.3125 C5.05798828 25.41982422 5.05347656 24.52714844 5.04882812 23.60742188 C5.03704983 21.40488013 5.02060164 19.20247401 5 17 C4.34 17.66 3.68 18.32 3 19 C1.271532 12.82689999 0.77955899 6.34783749 0 0 Z " fill="#E76F6C" transform="translate(230,51)"/>
<path d="M0 0 C3.96 0 7.92 0 12 0 C12 0.66 12 1.32 12 2 C13.4540625 2.4640625 13.4540625 2.4640625 14.9375 2.9375 C18 4 18 4 19 5 C19 7.64 19 10.28 19 13 C13.06 13 7.12 13 1 13 C1 12.67 1 12.34 1 12 C6.61 12 12.22 12 18 12 C17.01 9.69 16.02 7.38 15 5 C13.4221875 5.0309375 13.4221875 5.0309375 11.8125 5.0625 C8.65802577 5.01078731 6.01362527 4.88636037 3 4 C2.67 3.34 2.34 2.68 2 2 C1.01 2.495 1.01 2.495 0 3 C0 2.01 0 1.02 0 0 Z " fill="#E74948" transform="translate(223,233)"/>
<path d="M0 0 C8.62828947 0.70723684 8.62828947 0.70723684 12 3 C13 5 13 5 13 13 C7.06 13 1.12 13 -5 13 C-5 12.67 -5 12.34 -5 12 C0.61 12 6.22 12 12 12 C11.67 9.69 11.34 7.38 11 5 C10.34 5 9.68 5 9 5 C8.34 6.32 7.68 7.64 7 9 C6.34 9 5.68 9 5 9 C5 8.01 5 7.02 5 6 C4.01 5.67 3.02 5.34 2 5 C0.3125 2.9375 0.3125 2.9375 -1 1 C-0.67 0.67 -0.34 0.34 0 0 Z " fill="#E74949" transform="translate(198,233)"/>
<path d="M0 0 C1.5 1.25 1.5 1.25 3 3 C3 4.32 3 5.64 3 7 C3.66 7 4.32 7 5 7 C4.25 12.75 4.25 12.75 2 15 C1.01 15 0.02 15 -1 15 C-1.53394179 13.5882217 -2.05165104 12.17029756 -2.5625 10.75 C-2.85253906 9.96109375 -3.14257812 9.1721875 -3.44140625 8.359375 C-4.05997081 5.74669673 -4.04632025 4.46069285 -3 2 C-2.01 1.34 -1.02 0.68 0 0 Z " fill="#F33C3A" transform="translate(14,218)"/>
<path d="M0 0 C1.6796875 1.52734375 1.6796875 1.52734375 3 3 C2.09507813 2.94779297 2.09507813 2.94779297 1.171875 2.89453125 C-3.76799416 2.67346401 -3.76799416 2.67346401 -8.375 4.1875 C-10.26105339 6.29117493 -11.55934901 8.57708698 -13 11 C-13.66 11 -14.32 11 -15 11 C-15.23428313 15.7897321 -15.23428313 15.7897321 -13 20 C-9.43230448 20.73606499 -9.43230448 20.73606499 -6 21 C-6.66 21.66 -7.32 22.32 -8 23 C-11.49379495 22.84809587 -13.51194277 22.34677751 -16.375 20.3125 C-18 18 -18 18 -18.6875 15.25 C-17.42252103 9.27009941 -12.683472 5.64241171 -8.4375 1.5 C-5.35647466 -0.39601559 -3.55670966 -0.54123843 0 0 Z " fill="#E88788" transform="translate(95,126)"/>
<path d="M0 0 C-0.33 0.99 -0.66 1.98 -1 3 C-2.65 3.33 -4.3 3.66 -6 4 C-6 4.99 -6 5.98 -6 7 C-4.02 7.66 -2.04 8.32 0 9 C0 9.66 0 10.32 0 11 C-2.6875 11.8125 -2.6875 11.8125 -6 12 C-8.9375 9.875 -8.9375 9.875 -11 7 C-11.07748907 3.74545916 -10.47731651 2.53035168 -8.3125 0.125 C-5.21105827 -1.38380949 -3.27921467 -0.81980367 0 0 Z " fill="#545454" transform="translate(71,274)"/>
<path d="M0 0 C13.05781809 10.54669922 13.05781809 10.54669922 14 17 C13.05219877 20.06212707 12.27795022 21.72204978 10 24 C7.31160615 24.26991906 4.70858064 24.08737357 2 24 C2 23.67 2 23.34 2 23 C3.423125 22.5359375 3.423125 22.5359375 4.875 22.0625 C7.86080408 21.12605258 7.86080408 21.12605258 10 20 C10.46523063 18.10466658 10.46523063 18.10466658 10.625 15.9375 C10.74875 14.638125 10.8725 13.33875 11 12 C9.68 12.33 8.36 12.66 7 13 C6.9071875 11.824375 6.9071875 11.824375 6.8125 10.625 C6.544375 9.75875 6.27625 8.8925 6 8 C5.175 7.690625 4.35 7.38125 3.5 7.0625 C2.675 6.711875 1.85 6.36125 1 6 C0.1875 2.875 0.1875 2.875 0 0 Z " fill="#EB7170" transform="translate(148,159)"/>
<path d="M0 0 C1.28197266 -0.00386719 1.28197266 -0.00386719 2.58984375 -0.0078125 C4.88930852 0.11569746 6.85890348 0.48079313 9.0625 1.125 C7.73604472 3.77791056 6.83879995 4.07717066 4.0625 5.125 C1.4540208 5.41914765 -1.07283311 5.63137617 -3.6875 5.75 C-4.38488281 5.78867188 -5.08226562 5.82734375 -5.80078125 5.8671875 C-7.51260818 5.96098624 -9.22501682 6.04406174 -10.9375 6.125 C-10.9375 5.135 -10.9375 4.145 -10.9375 3.125 C-7.09889106 0.56592738 -4.51152646 -0.0135685 0 0 Z " fill="#F43B3A" transform="translate(63.9375,233.875)"/>
<path d="M0 0 C0.66 0.33 1.32 0.66 2 1 C1.25 7.75 1.25 7.75 -1 10 C-0.67 10.66 -0.34 11.32 0 12 C-4.62 12 -9.24 12 -14 12 C-13.34 11.67 -12.68 11.34 -12 11 C-12.33 9.68 -12.66 8.36 -13 7 C-11.39125 7.061875 -11.39125 7.061875 -9.75 7.125 C-5.48878143 7.04088893 -5.48878143 7.04088893 -2 5 C-0.71745356 2.46229997 -0.71745356 2.46229997 0 0 Z " fill="#F43A3B" transform="translate(72,245)"/>
<path d="M0 0 C3.125 1.5 3.125 1.5 5 3 C1.7169902 4.6415049 -1.42545033 3.51888624 -5 3 C-4.34 4.32 -3.68 5.64 -3 7 C-3.804375 7.12375 -4.60875 7.2475 -5.4375 7.375 C-6.7059375 7.684375 -6.7059375 7.684375 -8 8 C-8.33 8.66 -8.66 9.32 -9 10 C-6.36 10 -3.72 10 -1 10 C-0.67 9.34 -0.34 8.68 0 8 C0 8.99 0 9.98 0 11 C-3.3 11 -6.6 11 -10 11 C-10.66 9.35 -11.32 7.7 -12 6 C-10.35 6 -8.7 6 -7 6 C-7 4.68 -7 3.36 -7 2 C-7.5775 2.350625 -8.155 2.70125 -8.75 3.0625 C-11.35801776 4.14917407 -12.39417629 3.93065133 -15 3 C-10.37140861 -0.70287312 -5.67042788 -0.72507111 0 0 Z " fill="#E56E6F" transform="translate(203,231)"/>
<path d="M0 0 C0.66666667 2.66666667 1.33333333 5.33333333 2 8 C7.55493924 9.02703748 7.55493924 9.02703748 13 8 C13.33 6.35 13.66 4.7 14 3 C14.99 2.67 15.98 2.34 17 2 C17.33 1.34 17.66 0.68 18 0 C18.99 0 19.98 0 21 0 C19.60609461 3.15719572 17.96365028 5.2812653 15.5 7.6875 C14.8915625 8.28949219 14.283125 8.89148438 13.65625 9.51171875 C11.16981111 11.7459952 10.0487785 11.99548347 6.625 12.3125 C3 12 3 12 0.5625 10.4375 C-1.54048663 7.15684085 -1.360388 4.82011276 -1 1 C-0.67 0.67 -0.34 0.34 0 0 Z " fill="#E87071" transform="translate(111,169)"/>
<path d="M0 0 C0.66 0 1.32 0 2 0 C2 1.32 2 2.64 2 4 C1.071875 4.12375 1.071875 4.12375 0.125 4.25 C-2.18437567 4.81258459 -2.18437567 4.81258459 -3.25 7.0625 C-3.4975 7.701875 -3.745 8.34125 -4 9 C-4.66 9 -5.32 9 -6 9 C-5.67 11.97 -5.34 14.94 -5 18 C-1.7 18 1.6 18 5 18 C3 20 3 20 -0.9375 20.3125 C-3.39176089 20.22787031 -4.78814617 20.10592691 -7 19 C-8.68861341 15.62277317 -8.92345006 12.59190232 -8 9 C-5.97022092 6.00439729 -3.6032469 3.50336213 -1 1 C-0.67 0.67 -0.34 0.34 0 0 Z " fill="#E87676" transform="translate(69,112)"/>
<path d="M0 0 C12.49699054 10.09372313 12.49699054 10.09372313 13.5625 16.25 C12.95924634 19.19924012 12.3756951 20.21822867 10 22 C10 19.36 10 16.72 10 14 C9.34 14 8.68 14 8 14 C8 12.35 8 10.7 8 9 C5.69 8.34 3.38 7.68 1 7 C0.67 4.69 0.34 2.38 0 0 Z " fill="#E86F6E" transform="translate(165,143)"/>
<path d="M0 0 C0.33 0.66 0.66 1.32 1 2 C0.67 2.66 0.34 3.32 0 4 C-0.54205958 10.28789117 0.26110935 14.81157021 4 20 C7.53507474 22.93335989 10.43142773 24.46252091 15 25 C15 25.33 15 25.66 15 26 C10.04230204 26.29162929 6.97193147 26.12940055 3 23 C3 22.34 3 21.68 3 21 C2.34 21 1.68 21 1 21 C-3.59571631 16.03662638 -3.20617933 10.39155932 -3 4 C-2.67 3.01 -2.34 2.02 -2 1 C-1.34 0.67 -0.68 0.34 0 0 Z " fill="#E86667" transform="translate(103,66)"/>
<path d="M0 0 C1.77007714 -0.08114106 3.54122098 -0.13925505 5.3125 -0.1875 C6.29863281 -0.22230469 7.28476563 -0.25710937 8.30078125 -0.29296875 C11 0 11 0 12.875 1.375 C14 3 14 3 13.6875 5.1875 C13.3471875 6.0846875 13.3471875 6.0846875 13 7 C11 7 11 7 9.5 5.5625 C9.005 5.046875 8.51 4.53125 8 4 C7.34 3.67 6.68 3.34 6 3 C6 3.66 6 4.32 6 5 C3.36 5 0.72 5 -2 5 C-1.34 3.35 -0.68 1.7 0 0 Z " fill="#F73B3E" transform="translate(145,232)"/>
<path d="M0 0 C0.99 0.33 1.98 0.66 3 1 C5.39490986 1.06970052 7.79167691 1.08448003 10.1875 1.0625 C11.45980469 1.05347656 12.73210937 1.04445312 14.04296875 1.03515625 C15.01878906 1.02355469 15.99460938 1.01195312 17 1 C16.01 1.495 16.01 1.495 15 2 C15 2.66 15 3.32 15 4 C14.01 4 13.02 4 12 4 C12 4.99 12 5.98 12 7 C9.03 7 6.06 7 3 7 C2.34 5.68 1.68 4.36 1 3 C0.34 2.34 -0.32 1.68 -1 1 C-0.67 0.67 -0.34 0.34 0 0 Z " fill="#F63B39" transform="translate(222,251)"/>
<path d="M0 0 C1.051875 -0.00386719 1.051875 -0.00386719 2.125 -0.0078125 C4 0.125 4 0.125 6 1.125 C4.94124926 4.52812738 3.99097846 7.13853231 2 10.125 C0.125 10.34765625 0.125 10.34765625 -2 10.1875 C-4.08238893 9.99578993 -4.08238893 9.99578993 -6 10.125 C-6.66 10.785 -7.32 11.445 -8 12.125 C-8 10.805 -8 9.485 -8 8.125 C-3.545 7.63 -3.545 7.63 1 7.125 C1 6.465 1 5.805 1 5.125 C1.66 5.125 2.32 5.125 3 5.125 C3 4.135 3 3.145 3 2.125 C0.36 2.125 -2.28 2.125 -5 2.125 C-5 2.785 -5 3.445 -5 4.125 C-6.32 4.125 -7.64 4.125 -9 4.125 C-8.67 3.135 -8.34 2.145 -8 1.125 C-7.34 1.125 -6.68 1.125 -6 1.125 C-3.75487738 0.00243869 -2.48543351 -0.00913762 0 0 Z " fill="#E98784" transform="translate(264,230.875)"/>
<path d="M0 0 C0.33 0 0.66 0 1 0 C1 2.33333333 1 4.66666667 1 7 C1.63903117 8.67745682 2.30341637 10.34561387 3 12 C5.97 12 8.94 12 12 12 C12 12.33 12 12.66 12 13 C2.19561288 13.463605 2.19561288 13.463605 -2.0625 11.8125 C-4.34804813 9.67440658 -5.1061845 7.97938499 -6 5 C-6.33 4.01 -6.66 3.02 -7 2 C-5.35 2 -3.7 2 -2 2 C-2 2.66 -2 3.32 -2 4 C-1.34 4 -0.68 4 0 4 C0 2.68 0 1.36 0 0 Z " fill="#EE3E40" transform="translate(222,246)"/>
<path d="M0 0 C0 0.33 0 0.66 0 1 C-1.65 1 -3.3 1 -5 1 C-5.226875 1.556875 -5.45375 2.11375 -5.6875 2.6875 C-7.36718835 5.6469509 -9.54133285 7.66126784 -12 10 C-12.556875 10.598125 -13.11375 11.19625 -13.6875 11.8125 C-15 13 -15 13 -17 13 C-16.50557747 8.64908177 -15.21609965 6.73822101 -12.0625 3.75 C-11.35222656 3.06421875 -10.64195313 2.3784375 -9.91015625 1.671875 C-6.3609814 -1.43456025 -4.51361552 -0.88309869 0 0 Z " fill="#E76B6D" transform="translate(112,143)"/>
<path d="M0 0 C1.32 0.33 2.64 0.66 4 1 C2.63491499 4.11728368 1.13080302 6.08663738 -1.4375 8.3125 C-2.03433594 8.84488281 -2.63117187 9.37726563 -3.24609375 9.92578125 C-3.82488281 10.28027344 -4.40367188 10.63476562 -5 11 C-8.41158256 9.86280581 -9.11854601 8.95657056 -11 6 C-11 5.34 -11 4.68 -11 4 C-7.125 5.875 -7.125 5.875 -6 7 C-6 5.68 -6 4.36 -6 3 C-3.03 3.495 -3.03 3.495 0 4 C0 2.68 0 1.36 0 0 Z " fill="#E86261" transform="translate(60,105)"/>
<path d="M0 0 C0.886875 0.185625 1.77375 0.37125 2.6875 0.5625 C5.85178811 0.98042484 7.94839642 0.80777742 11 0 C10.566875 1.051875 10.566875 1.051875 10.125 2.125 C8.97866412 5.05452503 7.97374346 8.00921653 7 11 C6.01 11 5.02 11 4 11 C3.71125 9.9275 3.4225 8.855 3.125 7.75 C2.27179891 4.90599636 1.4363497 2.56491017 0 0 Z " fill="#454545" transform="translate(205,274)"/>
<path d="M0 0 C1.12894876 0.93274109 2.25300876 1.87140122 3.375 2.8125 C4.00148438 3.33457031 4.62796875 3.85664063 5.2734375 4.39453125 C7 6 7 6 9 9 C7.68 9 6.36 9 5 9 C4.67 9.66 4.34 10.32 4 11 C1.9375 11.625 1.9375 11.625 0 12 C-3.875 6.25 -3.875 6.25 -5 4 C-3.02 4.66 -1.04 5.32 1 6 C0.67 4.02 0.34 2.04 0 0 Z " fill="#ED6264" transform="translate(122,133)"/>
<path d="M0 0 C0.66 0.66 1.32 1.32 2 2 C1.34 2 0.68 2 0 2 C0.33 3.98 0.66 5.96 1 8 C-0.155 7.484375 -1.31 6.96875 -2.5 6.4375 C-8.22902669 4.27387822 -13.18717667 5.30459319 -19 7 C-19 5.68 -19 4.36 -19 3 C-16.69 3 -14.38 3 -12 3 C-11.67 2.34 -11.34 1.68 -11 1 C-7.7 1.66 -4.4 2.32 -1 3 C-0.67 2.01 -0.34 1.02 0 0 Z " fill="#E56561" transform="translate(85,98)"/>
<path d="M0 0 C5.75 1.625 5.75 1.625 8 5 C0.76176471 11.13676471 0.76176471 11.13676471 -5.625 11.0625 C-6.62789062 11.05347656 -7.63078125 11.04445313 -8.6640625 11.03515625 C-9.43492187 11.02355469 -10.20578125 11.01195312 -11 11 C-11 10.67 -11 10.34 -11 10 C-7.7 10 -4.4 10 -1 10 C1.2236068 6.2981424 1.2236068 6.2981424 1 3 C0.34 2.34 -0.32 1.68 -1 1 C-0.67 0.67 -0.34 0.34 0 0 Z " fill="#E87D7D" transform="translate(204,248)"/>
<path d="M0 0 C0 2.70254461 -0.03430669 4.50529228 -1 7 C-4.17973464 9.35535899 -7.15124621 9.17494335 -11 9 C-10.6875 6.625 -10.6875 6.625 -10 4 C-6.68704675 1.7913645 -5.77546697 2 -2 2 C-1.34 1.34 -0.68 0.68 0 0 Z " fill="#F53B3B" transform="translate(125,170)"/>
<path d="M0 0 C1.09924805 0.0009668 1.09924805 0.0009668 2.22070312 0.00195312 C6.03507556 0.03290836 9.60481331 0.27337606 13.3125 1.1875 C13.3125 1.5175 13.3125 1.8475 13.3125 2.1875 C11.84876953 2.17009766 11.84876953 2.17009766 10.35546875 2.15234375 C9.08316406 2.14332031 7.81085938 2.13429688 6.5 2.125 C5.23542969 2.11339844 3.97085938 2.10179688 2.66796875 2.08984375 C-0.68355237 2.02590884 -0.68355237 2.02590884 -3.6875 3.1875 C-6.42039293 3.41547562 -9.13792204 3.60418187 -11.875 3.75 C-12.99938477 3.81477539 -12.99938477 3.81477539 -14.14648438 3.88085938 C-15.99328375 3.98672685 -17.84036834 4.0875976 -19.6875 4.1875 C-13.63270408 0.15096939 -7.06020682 -0.1198784 0 0 Z " fill="#E97975" transform="translate(95.6875,21.8125)"/>
<path d="M0 0 C7.48291572 6.15034169 7.48291572 6.15034169 10 10 C7.69 9.67 5.38 9.34 3 9 C2.67 10.32 2.34 11.64 2 13 C-1.875 8.25 -1.875 8.25 -3 6 C-0.03 6.495 -0.03 6.495 3 7 C2.505 6.5875 2.01 6.175 1.5 5.75 C0 4 0 4 0 0 Z " fill="#EB7777" transform="translate(138,149)"/>
<path d="M0 0 C2.97 0 5.94 0 9 0 C9 0.99 9 1.98 9 3 C8.01 3 7.02 3 6 3 C6 5.64 6 8.28 6 11 C5.01 11 4.02 11 3 11 C3 8.36 3 5.72 3 3 C2.01 3 1.02 3 0 3 C0 2.01 0 1.02 0 0 Z " fill="#3F3F3F" transform="translate(189,274)"/>
<path d="M0 0 C1.32 0 2.64 0 4 0 C5.17571451 3.67410785 5.07366746 7.16929183 5 11 C3.68 10.67 2.36 10.34 1 10 C0.87625 9.360625 0.7525 8.72125 0.625 8.0625 C0.315625 7.0415625 0.315625 7.0415625 0 6 C-0.66 5.67 -1.32 5.34 -2 5 C-1.34 3.35 -0.68 1.7 0 0 Z " fill="#4F4F4F" transform="translate(127,274)"/>
<path d="M0 0 C0.66 0.33 1.32 0.66 2 1 C1.5047783 4.66464055 0.9791794 6.70832354 -2 9 C-5.50711619 10.16903873 -8.36782386 10.16839619 -12.0625 10.1875 C-13.31160156 10.20167969 -14.56070313 10.21585937 -15.84765625 10.23046875 C-19 10 -19 10 -21 8 C-15.06 8 -9.12 8 -3 8 C-2.67 6.68 -2.34 5.36 -2 4 C-1.34 4.33 -0.68 4.66 0 5 C0 3.35 0 1.7 0 0 Z " fill="#E87B7A" transform="translate(124,249)"/>
<path d="M0 0 C2.49205647 3.73808471 2.1865513 5.40725758 1.625 9.703125 C0.62493656 13.37835816 -1.33277566 15.33277566 -4 18 C-5.32 17.34 -6.64 16.68 -8 16 C-7.34 15.34 -6.68 14.68 -6 14 C-5.3574765 11.93125966 -5.3574765 11.93125966 -5 10 C-4.01 10.33 -3.02 10.66 -2 11 C-0.33657163 9.33657163 -0.63951903 7.2174291 -0.4375 4.9375 C-0.35371094 4.01839844 -0.26992187 3.09929687 -0.18359375 2.15234375 C-0.12300781 1.44207031 -0.06242187 0.73179687 0 0 Z " fill="#EA6E6D" transform="translate(78,239)"/>
<path d="M0 0 C0.33 0 0.66 0 1 0 C1.3627204 7.37531486 1.3627204 7.37531486 -0.125 9.9375 C-2.88242354 11.50004001 -4.81472279 11.93754358 -8 12 C-11.375 10.0625 -11.375 10.0625 -14 8 C-13.67 7.01 -13.34 6.02 -13 5 C-12.01 5.33 -11.02 5.66 -10 6 C-10 6.99 -10 7.98 -10 9 C-7.03 9.495 -7.03 9.495 -4 10 C-4 9.01 -4 8.02 -4 7 C-3.34 7 -2.68 7 -2 7 C-2 6.34 -2 5.68 -2 5 C-1.34 5 -0.68 5 0 5 C0 3.35 0 1.7 0 0 Z " fill="#E9706F" transform="translate(193,139)"/>
<path d="M0 0 C0.33 0 0.66 0 1 0 C1 2.97 1 5.94 1 9 C1.66 9 2.32 9 3 9 C3.33 10.32 3.66 11.64 4 13 C4.99 12.34 5.98 11.68 7 11 C7.99 11 8.98 11 10 11 C10 13.64 10 16.28 10 19 C5.95705252 16.80525708 2.72787662 14.74108793 0 11 C-0.41798032 7.29564942 -0.29244653 3.71082157 0 0 Z " fill="#EC6E70" transform="translate(140,163)"/>
<path d="M0 0 C0.33 0.99 0.66 1.98 1 3 C3.97 3 6.94 3 10 3 C10 4.65 10 6.3 10 8 C6.04 8 2.08 8 -2 8 C-2.66 6.02 -3.32 4.04 -4 2 C-2.68 1.34 -1.36 0.68 0 0 Z M1 4 C0.01 5.485 0.01 5.485 -1 7 C1.97 7 4.94 7 8 7 C7.34 6.01 6.68 5.02 6 4 C3.5 3.5 3.5 3.5 1 4 Z " fill="#EE6968" transform="translate(225,234)"/>
<path d="M0 0 C2.97 0.33 5.94 0.66 9 1 C10.49821059 4.37097383 11 6.20442119 11 10 C11.66 10.33 12.32 10.66 13 11 C10 11 10 11 7.51953125 8.84765625 C6.62621094 7.92855469 5.73289063 7.00945312 4.8125 6.0625 C3.91144531 5.14597656 3.01039063 4.22945313 2.08203125 3.28515625 C0 1 0 1 0 0 Z " fill="#EA605D" transform="translate(184,118)"/>
<path d="M0 0 C2.22189824 2.22189824 2.92598892 4.08482708 4 7 C4.99 4.69 5.98 2.38 7 0 C8.10844919 3.32534757 7.84454356 5.62182575 7 9 C7.66 9 8.32 9 9 9 C8.34 10.32 7.68 11.64 7 13 C7 12.34 7 11.68 7 11 C5.35 11 3.7 11 2 11 C0.80712589 7.12315913 0 4.08378077 0 0 Z " fill="#ED7474" transform="translate(23,233)"/>
<path d="M0 0 C2.9375 0.75 2.9375 0.75 6 2 C6.875 4.125 6.875 4.125 7 6 C8.1446875 6.0928125 8.1446875 6.0928125 9.3125 6.1875 C12 7 12 7 13.8125 9.375 C15 12 15 12 15 15 C9.72997792 10.60831493 4.64697949 6.0573621 0 1 C0 0.67 0 0.34 0 0 Z " fill="#E96361" transform="translate(151,118)"/>
<path d="M0 0 C0.99 0 1.98 0 3 0 C3.33 2.31 3.66 4.62 4 7 C6.97 7.33 9.94 7.66 13 8 C13.33 9.65 13.66 11.3 14 13 C13.13375 12.54625 12.2675 12.0925 11.375 11.625 C8.11194611 9.88902181 8.11194611 9.88902181 4.75 9.3125 C2 8 2 8 1.1796875 6.09765625 C0.678411 4.08902014 0.3296495 2.04382689 0 0 Z " fill="#E7706F" transform="translate(89,110)"/>
<path d="M0 0 C3 1 3 1 4 3 C4.59883983 6.74274895 4.64600309 9.07460057 2.4375 12.23828125 C0.68363772 14.22905638 -1.10739873 16.14119518 -3 18 C-3.33 16.68 -3.66 15.36 -4 14 C-3.34 14 -2.68 14 -2 14 C-1.67 12.68 -1.34 11.36 -1 10 C-0.01 10 0.98 10 2 10 C2 8.02 2 6.04 2 4 C1.34 3.67 0.68 3.34 0 3 C0 2.01 0 1.02 0 0 Z " fill="#E76F71" transform="translate(79,111)"/>
<path d="M0 0 C0 3.75366417 -1.11420063 5.78715662 -3 9 C-3.99 9.33 -4.98 9.66 -6 10 C-5.01 12.64 -4.02 15.28 -3 18 C-3.99 18 -4.98 18 -6 18 C-7.52951026 16.47048974 -7.3539351 15.06639586 -7.5 12.9375 C-7.5 7.61745518 -5.14135303 5.10816291 -1.53125 1.43359375 C-1.0259375 0.96050781 -0.520625 0.48742188 0 0 Z " fill="#E66766" transform="translate(117,62)"/>
<path d="M0 0 C2.47067185 1.07359365 3.93896286 2.21748139 6 4 C5.67 4.66 5.34 5.32 5 6 C3.68 5.34 2.36 4.68 1 4 C1 3.34 1 2.68 1 2 C-0.89611434 2.14213297 -2.79188394 2.28886907 -4.6875 2.4375 C-5.74324219 2.51871094 -6.79898438 2.59992188 -7.88671875 2.68359375 C-10.65086297 2.96451681 -13.28945741 3.40156852 -16 4 C-11.31256002 -0.90050543 -6.57133486 -0.71166355 0 0 Z " fill="#E78689" transform="translate(234,231)"/>
<path d="M0 0 C0.99 0 1.98 0 3 0 C3 3.63 3 7.26 3 11 C1.35 10.67 -0.3 10.34 -2 10 C-2 8.68 -2 7.36 -2 6 C-1.34 6 -0.68 6 0 6 C0 4.02 0 2.04 0 0 Z " fill="#373737" transform="translate(166,274)"/>
<path d="M0 0 C7.37531486 -0.3627204 7.37531486 -0.3627204 9.9375 1.125 C11.38591512 3.68102669 11.67815583 6.10340247 12 9 C11.34 7.68 10.68 6.36 10 5 C8.35 5.66 6.7 6.32 5 7 C5.33 5.68 5.66 4.36 6 3 C3.69 2.67 1.38 2.34 -1 2 C-0.67 1.34 -0.34 0.68 0 0 Z " fill="#EE6063" transform="translate(121,159)"/>
<path d="M0 0 C1.32 0.66 2.64 1.32 4 2 C4.42969812 7.24231711 4.42969812 7.24231711 4 10 C1.20308991 12.63238596 -0.49206847 12.97124916 -4.3125 13.1875 C-5.6428125 13.0946875 -5.6428125 13.0946875 -7 13 C-7 12.01 -7 11.02 -7 10 C-5.865625 9.855625 -4.73125 9.71125 -3.5625 9.5625 C-0.19222799 9.38828522 -0.19222799 9.38828522 1 8 C1.24733137 3.85723125 1.24733137 3.85723125 0 0 Z " fill="#E96F70" transform="translate(67,240)"/>
<path d="M0 0 C-6.15034169 7.48291572 -6.15034169 7.48291572 -10 10 C-10 8.68 -10 7.36 -10 6 C-9.34 6 -8.68 6 -8 6 C-8.33 5.01 -8.66 4.02 -9 3 C-6.38997624 -0.48003168 -4.1689578 -0.27793052 0 0 Z " fill="#EA7170" transform="translate(130,39)"/>
<path d="M0 0 C1.32 0 2.64 0 4 0 C5.20272819 2.40545638 5.10071472 3.94996953 5.0625 6.625 C5.05347656 7.44226563 5.04445313 8.25953125 5.03515625 9.1015625 C5.02355469 9.72804688 5.01195313 10.35453125 5 11 C4.01 11 3.02 11 2 11 C0.80712589 7.12315913 0 4.08378077 0 0 Z " fill="#363636" transform="translate(106,274)"/>
<path d="M0 0 C0.66 0.33 1.32 0.66 2 1 C1.34 1.66 0.68 2.32 0 3 C-0.64767793 5.57061311 -0.64767793 5.57061311 -1 8 C-2.32 7.67 -3.64 7.34 -5 7 C-5.33 7.99 -5.66 8.98 -6 10 C-8.5625 11.1875 -8.5625 11.1875 -11 12 C-8.47295673 6.78797325 -4.38226641 3.6119868 0 0 Z " fill="#EA6E6D" transform="translate(62,32)"/>
<path d="M0 0 C0.33 0.99 0.66 1.98 1 3 C3.31 3.33 5.62 3.66 8 4 C8.33 4.99 8.66 5.98 9 7 C6.25 7.6875 6.25 7.6875 3 8 C0.625 6.5625 0.625 6.5625 -1 5 C-0.67 3.35 -0.34 1.7 0 0 Z " fill="#515151" transform="translate(62,278)"/>
<path d="M0 0 C1.32 0 2.64 0 4 0 C4.33 2.31 4.66 4.62 5 7 C4.34 6.67 3.68 6.34 3 6 C2.67 7.65 2.34 9.3 2 11 C1.01 11 0.02 11 -1 11 C-0.67 7.37 -0.34 3.74 0 0 Z " fill="#2B2B2B" transform="translate(99,274)"/>
<path d="M0 0 C3.70967742 3.70967742 3.70967742 3.70967742 4 7 C3.05219877 10.06212707 2.27795022 11.72204978 0 14 C-2.68839385 14.26991906 -5.29141936 14.08737357 -8 14 C-8 13.67 -8 13.34 -8 13 C-7.05125 12.690625 -6.1025 12.38125 -5.125 12.0625 C-2.13919592 11.12605258 -2.13919592 11.12605258 0 10 C0 6.7 0 3.4 0 0 Z " fill="#E07676" transform="translate(158,169)"/>
<path d="M0 0 C0.33 0 0.66 0 1 0 C1 2.31 1 4.62 1 7 C1.99 7.33 2.98 7.66 4 8 C4 8.66 4 9.32 4 10 C7.465 9.505 7.465 9.505 11 9 C10.67 9.99 10.34 10.98 10 12 C6.80615246 12.21776233 4.59577155 12.28983481 1.6875 10.875 C-0.60324111 8.3297321 -0.7890743 6.37481114 -1 3 C-0.67 2.01 -0.34 1.02 0 0 Z " fill="#E9797C" transform="translate(94,153)"/>
<path d="M0 0 C1.65 0.33 3.3 0.66 5 1 C5.66 3.64 6.32 6.28 7 9 C4.47524538 10.26237731 2.68799534 10.09856404 -0.125 10.0625 C-1.03507813 10.05347656 -1.94515625 10.04445313 -2.8828125 10.03515625 C-3.58148438 10.02355469 -4.28015625 10.01195312 -5 10 C-5 9.67 -5 9.34 -5 9 C-0.545 8.505 -0.545 8.505 4 8 C4 6.35 4 4.7 4 3 C2.68 3 1.36 3 0 3 C0 2.01 0 1.02 0 0 Z " fill="#E88687" transform="translate(176,249)"/>
<path d="M0 0 C3.73669693 0.41518855 6.73738338 1.11772118 10 3 C9.67 3.99 9.34 4.98 9 6 C6.03 5.67 3.06 5.34 0 5 C-0.33 3.68 -0.66 2.36 -1 1 C-0.67 0.67 -0.34 0.34 0 0 Z " fill="#F73938" transform="translate(110,129)"/>
<path d="M0 0 C1.14926266 0.95421808 2.29430541 1.91352045 3.4375 2.875 C4.07558594 3.40867187 4.71367187 3.94234375 5.37109375 4.4921875 C7 6 7 6 8 8 C7.34 8.66 6.68 9.32 6 10 C6 9.34 6 8.68 6 8 C5.34 8 4.68 8 4 8 C3.67 8.66 3.34 9.32 3 10 C1.5 8.9375 1.5 8.9375 0 7 C-0.1875 3.3125 -0.1875 3.3125 0 0 Z " fill="#EE585A" transform="translate(164,77)"/>
<path d="M0 0 C0.33 1.32 0.66 2.64 1 4 C0.34 4 -0.32 4 -1 4 C-1.33 7.96 -1.66 11.92 -2 16 C-1.34 16.33 -0.68 16.66 0 17 C-0.99 17 -1.98 17 -3 17 C-4.65025343 12.0492397 -4.8413331 7.71924591 -2.5625 3.0625 C-1 1 -1 1 0 0 Z " fill="#EA7C7B" transform="translate(187,235)"/>
<path d="M0 0 C0.99 0.33 1.98 0.66 3 1 C0.94235079 7.45353615 -1.42383482 13.7361263 -4 20 C-4.33 20 -4.66 20 -5 20 C-5 18.02 -5 16.04 -5 14 C-4.34 14 -3.68 14 -3 14 C-2.67 11.69 -2.34 9.38 -2 7 C-1.34 7 -0.68 7 0 7 C0 4.69 0 2.38 0 0 Z " fill="#EA7D7C" transform="translate(37,236)"/>
<path d="M0 0 C0.66 0.33 1.32 0.66 2 1 C2 1.66 2 2.32 2 3 C2.99 3.33 3.98 3.66 5 4 C5.33 5.65 5.66 7.3 6 9 C6.99 9.33 7.98 9.66 9 10 C8.34 10.66 7.68 11.32 7 12 C3.7 8.7 0.4 5.4 -3 2 C-2.01 1.34 -1.02 0.68 0 0 Z " fill="#EA5A56" transform="translate(136,132)"/>
<path d="M0 0 C1.125 2.25 1.125 2.25 2 5 C1.34 6.32 0.68 7.64 0 9 C-2.31 6.69 -4.62 4.38 -7 2 C-4.64782215 0.82391107 -2.65399154 0 0 0 Z " fill="#F15658" transform="translate(196,90)"/>
<path d="M0 0 C0.33 1.32 0.66 2.64 1 4 C0.34 4 -0.32 4 -1 4 C-1.103125 4.61875 -1.20625 5.2375 -1.3125 5.875 C-2 8 -2 8 -5 10 C-6.32 9.67 -7.64 9.34 -9 9 C-6.03 6.03 -3.06 3.06 0 0 Z " fill="#EA6265" transform="translate(132,47)"/>
<path d="M0 0 C0.99 0 1.98 0 3 0 C3 3.63 3 7.26 3 11 C2.01 11 1.02 11 0 11 C0 7.37 0 3.74 0 0 Z " fill="#2E2E2E" transform="translate(178,274)"/>
<path d="M0 0 C0.66 0.33 1.32 0.66 2 1 C1.01 1.33 0.02 1.66 -1 2 C-1 2.99 -1 3.98 -1 5 C-7.96428571 7.27678571 -7.96428571 7.27678571 -12 6 C-10.04669132 4.96958487 -8.08718472 3.9509107 -6.125 2.9375 C-5.03445312 2.36902344 -3.94390625 1.80054687 -2.8203125 1.21484375 C-1.42425781 0.61349609 -1.42425781 0.61349609 0 0 Z " fill="#EB7072" transform="translate(162,25)"/>
<path d="M0 0 C0.99 0.33 1.98 0.66 3 1 C3.6875 3.25 3.6875 3.25 4 6 C2.6875 8.3125 2.6875 8.3125 1 10 C0.34 10 -0.32 10 -1 10 C-1.02689216 8.52093108 -1.04634621 7.04172517 -1.0625 5.5625 C-1.07410156 4.73878906 -1.08570312 3.91507812 -1.09765625 3.06640625 C-1 1 -1 1 0 0 Z " fill="#3E3E3E" transform="translate(87,275)"/>
<path d="M0 0 C0.33 0 0.66 0 1 0 C1.33872513 1.41538717 1.67074624 2.83237963 2 4.25 C2.185625 5.03890625 2.37125 5.8278125 2.5625 6.640625 C3 9 3 9 3 13 C4.65 13.33 6.3 13.66 8 14 C6.02 14.99 6.02 14.99 4 16 C-0.39973696 10.77531236 -0.47617251 6.69286912 0 0 Z " fill="#E97776" transform="translate(48,240)"/>
<path d="M0 0 C0.6875 1.8125 0.6875 1.8125 1 4 C-0.15625 5.625 -0.15625 5.625 -2 7 C-4.48046875 7.29296875 -4.48046875 7.29296875 -7.1875 7.1875 C-8.53908203 7.14689453 -8.53908203 7.14689453 -9.91796875 7.10546875 C-10.60503906 7.07066406 -11.29210937 7.03585938 -12 7 C-11.41605469 6.71253906 -10.83210938 6.42507812 -10.23046875 6.12890625 C-4.76138217 3.54767623 -4.76138217 3.54767623 0 0 Z " fill="#EB6969" transform="translate(133,85)"/>
<path d="M0 0 C2.4932534 0.99730136 3.77467439 1.65074531 5.25 3.9375 C6 6 6 6 6 9 C4.125 8.8125 4.125 8.8125 2 8 C0.47835901 5.10888212 0 3.28176588 0 0 Z " fill="#F33A39" transform="translate(194,121)"/>
<path d="M0 0 C1.14926266 0.95421808 2.29430541 1.91352045 3.4375 2.875 C4.07558594 3.40867187 4.71367187 3.94234375 5.37109375 4.4921875 C7 6 7 6 8 8 C1.125 7.125 1.125 7.125 0 6 C-0.04080783 4.00041636 -0.04254356 1.99954746 0 0 Z " fill="#ED7371" transform="translate(141,119)"/>
<path d="M0 0 C0 3.38023517 -0.87455622 5.83468937 -2 9 C-3.98 9 -5.96 9 -8 9 C-7.04270084 7.87411986 -6.08412105 6.7493285 -5.125 5.625 C-4.59132812 4.99851562 -4.05765625 4.37203125 -3.5078125 3.7265625 C-2.38567993 2.44163349 -1.20628025 1.20628025 0 0 Z " fill="#EA6967" transform="translate(141,38)"/>
<path d="M0 0 C1.32 0.33 2.64 0.66 4 1 C2.75023244 4.65316671 2.32901247 5.78065836 -1 8 C-1.99 8 -2.98 8 -4 8 C-4 7.01 -4 6.02 -4 5 C-3.01 5 -2.02 5 -1 5 C-0.67 3.35 -0.34 1.7 0 0 Z " fill="#E77A7A" transform="translate(238,250)"/>
<path d="M0 0 C2.125 0 2.125 0 5 1 C7.25484692 3.49775783 9.14265083 6.19801963 11 9 C8 9 8 9 5.95703125 7.28515625 C5.24933594 6.55167969 4.54164063 5.81820312 3.8125 5.0625 C3.09707031 4.33160156 2.38164062 3.60070312 1.64453125 2.84765625 C0 1 0 1 0 0 Z " fill="#E35B5B" transform="translate(174,108)"/>
<path d="M0 0 C0.42410156 0.40992187 0.84820312 0.81984375 1.28515625 1.2421875 C5.40909902 5.03077668 8.50753777 6.87908934 14 8 C14 8.33 14 8.66 14 9 C9.04230204 9.29162929 5.97193147 9.12940055 2 6 C2 5.34 2 4.68 2 4 C1.34 4 0.68 4 0 4 C0 2.68 0 1.36 0 0 Z " fill="#E87676" transform="translate(104,83)"/>
<path d="M0 0 C1.02328619 3.19411474 0.96256253 5.4215884 0.25 8.6875 C0.09015625 9.47511719 -0.0696875 10.26273438 -0.234375 11.07421875 C-0.61335938 12.02748047 -0.61335938 12.02748047 -1 13 C-1.99 13.33 -2.98 13.66 -4 14 C-3.71572583 12.41532272 -3.42225182 10.8322943 -3.125 9.25 C-2.96257813 8.36828125 -2.80015625 7.4865625 -2.6328125 6.578125 C-2.03203736 4.13052256 -1.22002883 2.19400143 0 0 Z " fill="#E97070" transform="translate(45,52)"/>
<path d="M0 0 C0.99 0 1.98 0 3 0 C4.125 4.75 4.125 4.75 3 7 C1.68 7 0.36 7 -1 7 C-1.04254356 5.00045254 -1.04080783 2.99958364 -1 1 C-0.67 0.67 -0.34 0.34 0 0 Z " fill="#606060" transform="translate(120,278)"/>
<path d="M0 0 C0.66 0 1.32 0 2 0 C1.979375 1.216875 1.95875 2.43375 1.9375 3.6875 C1.93175884 6.91977322 2.21233685 9.84934741 3 13 C3.99 13.33 4.98 13.66 6 14 C4.125 14.625 4.125 14.625 2 15 C0 13 0 13 -0.1953125 9.9609375 C-0.17210938 8.77757812 -0.14890625 7.59421875 -0.125 6.375 C-0.10695313 5.18648437 -0.08890625 3.99796875 -0.0703125 2.7734375 C-0.04710938 1.85820312 -0.02390625 0.94296875 0 0 Z " fill="#E85C5A" transform="translate(99,242)"/>
<path d="M0 0 C2.64 0 5.28 0 8 0 C8 0.99 8 1.98 8 3 C7.34 3 6.68 3 6 3 C5.67 3.66 5.34 4.32 5 5 C3.68 4.67 2.36 4.34 1 4 C0.67 2.68 0.34 1.36 0 0 Z " fill="#F23C39" transform="translate(259,233)"/>
<path d="M0 0 C1.14926266 0.95421808 2.29430541 1.91352045 3.4375 2.875 C4.07558594 3.40867187 4.71367187 3.94234375 5.37109375 4.4921875 C7 6 7 6 8 8 C5.125 7.75 5.125 7.75 2 7 C0.13209062 4.45285085 0 3.19131 0 0 Z " fill="#EC6163" transform="translate(172,85)"/>
<path d="M0 0 C2.00841268 0.01421885 4.01537247 0.13420475 6.01953125 0.265625 C5.02953125 0.760625 5.02953125 0.760625 4.01953125 1.265625 C4.01953125 2.255625 4.01953125 3.245625 4.01953125 4.265625 C1.04953125 4.265625 -1.92046875 4.265625 -4.98046875 4.265625 C-3.72152968 1.74774686 -2.88459378 0.38688832 0 0 Z " fill="#E93F3E" transform="translate(229.98046875,253.734375)"/>
<path d="M0 0 C0.66 1.32 1.32 2.64 2 4 C4.97 4 7.94 4 11 4 C11 4.33 11 4.66 11 5 C-0.8689733 5.56122991 -0.8689733 5.56122991 -5 2 C-5 1.67 -5 1.34 -5 1 C-3.35 0.67 -1.7 0.34 0 0 Z " fill="#ED8080" transform="translate(223,254)"/>
<path d="M0 0 C0.99 0.33 1.98 0.66 3 1 C3.33 2.65 3.66 4.3 4 6 C6.64 6 9.28 6 12 6 C12 6.66 12 7.32 12 8 C8.7 8 5.4 8 2 8 C0.74335022 5.09399739 0 3.20395416 0 0 Z " fill="#E27170" transform="translate(20,250)"/>
<path d="M0 0 C0.99 0.33 1.98 0.66 3 1 C-0.625 6.875 -0.625 6.875 -4 8 C-3.50168276 4.31245243 -2.89932357 2.39509338 0 0 Z " fill="#E75455" transform="translate(99,148)"/>
<path d="M0 0 C2.31 1.98 4.62 3.96 7 6 C3 7 3 7 0.75 6.0625 C0.1725 5.711875 -0.405 5.36125 -1 5 C-0.67 3.35 -0.34 1.7 0 0 Z " fill="#EB6C6F" transform="translate(131,142)"/>
<path d="M0 0 C1.14926266 0.95421808 2.29430541 1.91352045 3.4375 2.875 C4.07558594 3.40867188 4.71367187 3.94234375 5.37109375 4.4921875 C7 6 7 6 8 8 C5.23723823 7.47731534 2.6739124 6.89130413 0 6 C0 4.02 0 2.04 0 0 Z " fill="#E97C79" transform="translate(155,133)"/>
<path d="M0 0 C2.97 0 5.94 0 9 0 C9 0.33 9 0.66 9 1 C7.7934375 1.185625 7.7934375 1.185625 6.5625 1.375 C5.716875 1.58125 4.87125 1.7875 4 2 C3.67 2.66 3.34 3.32 3 4 C5.64 4 8.28 4 11 4 C11.33 3.34 11.66 2.68 12 2 C12 2.99 12 3.98 12 5 C8.7 5 5.4 5 2 5 C1.34 3.35 0.68 1.7 0 0 Z " fill="#EE8180" transform="translate(191,237)"/>
<path d="M0 0 C-1 2 -1 2 -3.4375 2.9375 C-6.29863959 3.84547289 -6.29863959 3.84547289 -8 7 C-8 4.69 -8 2.38 -8 0 C-4.71023192 -1.09658936 -3.28696233 -0.79953138 0 0 Z " fill="#EC6567" transform="translate(148,112)"/>
<path d="M0 0 C1.32 0.33 2.64 0.66 4 1 C2.60667426 4.36720387 1.0210714 5.9859524 -2 8 C-2.66 6.35 -3.32 4.7 -4 3 C-2.68 3.33 -1.36 3.66 0 4 C0 2.68 0 1.36 0 0 Z " fill="#EB6869" transform="translate(60,105)"/>
<path d="M0 0 C0.33 0.66 0.66 1.32 1 2 C0.00390625 4.6015625 0.00390625 4.6015625 -1.4375 7.625 C-1.91058594 8.62789062 -2.38367188 9.63078125 -2.87109375 10.6640625 C-3.24363281 11.43492188 -3.61617187 12.20578125 -4 13 C-4.33 13 -4.66 13 -5 13 C-5 11.02 -5 9.04 -5 7 C-4.34 7 -3.68 7 -3 7 C-2.87625 6.030625 -2.7525 5.06125 -2.625 4.0625 C-2.41875 3.051875 -2.2125 2.04125 -2 1 C-1.34 0.67 -0.68 0.34 0 0 Z " fill="#E67C7A" transform="translate(234,95)"/>
<path d="M0 0 C1.14926266 0.95421808 2.29430541 1.91352045 3.4375 2.875 C4.07558594 3.40867187 4.71367187 3.94234375 5.37109375 4.4921875 C7 6 7 6 8 8 C5.03 7.505 5.03 7.505 2 7 C1.34 4.69 0.68 2.38 0 0 Z " fill="#EB6568" transform="translate(180,93)"/>
<path d="M0 0 C1.9375 0.8125 1.9375 0.8125 4 2 C4.33 2.99 4.66 3.98 5 5 C4.67 5.66 4.34 6.32 4 7 C2 7 2 7 0.3125 5.75 C-1 4 -1 4 -0.6875 1.8125 C-0.460625 1.214375 -0.23375 0.61625 0 0 Z " fill="#EC6569" transform="translate(154,232)"/>
<path d="M0 0 C4.455 0.99 4.455 0.99 9 2 C8.67 2.66 8.34 3.32 8 4 C9.32 4.66 10.64 5.32 12 6 C9.04876854 6.35133708 6.8502099 6.52850886 4.265625 4.921875 C2.77831883 3.6895356 1.38214043 2.34923232 0 1 C0 0.67 0 0.34 0 0 Z " fill="#EC8382" transform="translate(161,161)"/>
<path d="M0 0 C0.66 0 1.32 0 2 0 C2 1.32 2 2.64 2 4 C3.65 4 5.3 4 7 4 C7 4.66 7 5.32 7 6 C7.99 6.33 8.98 6.66 10 7 C6.79937313 8.60031344 4.27728194 7.03173691 1 6 C0.67 4.02 0.34 2.04 0 0 Z " fill="#E3696A" transform="translate(123,145)"/>
<path d="M0 0 C0.33 0 0.66 0 1 0 C1.36717663 7.4659249 1.36717663 7.4659249 -0.375 10 C-2 11 -2 11 -4 11 C-4 9.68 -4 8.36 -4 7 C-3.34 7 -2.68 7 -2 7 C-2 6.34 -2 5.68 -2 5 C-1.34 5 -0.68 5 0 5 C0 3.35 0 1.7 0 0 Z " fill="#EB6568" transform="translate(193,139)"/>
<path d="M0 0 C-0.3125 1.9375 -0.3125 1.9375 -1 4 C-1.99 4.33 -2.98 4.66 -4 5 C-4.33 6.98 -4.66 8.96 -5 11 C-5.33 11 -5.66 11 -6 11 C-6.48951049 4.63636364 -6.48951049 4.63636364 -4.125 1.5625 C-2 0 -2 0 0 0 Z " fill="#E66665" transform="translate(84,132)"/>
<path d="M0 0 C0.99 0.33 1.98 0.66 3 1 C2.01 1.495 2.01 1.495 1 2 C1.33 2.66 1.66 3.32 2 4 C4.52733235 4.65555119 4.52733235 4.65555119 7 5 C7 5.33 7 5.66 7 6 C0.6 6.49230769 0.6 6.49230769 -2.4375 4 C-2.953125 3.34 -3.46875 2.68 -4 2 C-2.68 2 -1.36 2 0 2 C0 1.34 0 0.68 0 0 Z " fill="#EC686C" transform="translate(200,128)"/>
<path d="M0 0 C1.65 0 3.3 0 5 0 C2.49447774 2.61940964 1.14652509 3.95696227 -2.6015625 4.09765625 C-4.09816406 4.08025391 -4.09816406 4.08025391 -5.625 4.0625 C-6.62789062 4.05347656 -7.63078125 4.04445313 -8.6640625 4.03515625 C-9.43492187 4.02355469 -10.20578125 4.01195312 -11 4 C-11 3.67 -11 3.34 -11 3 C-7.7 3 -4.4 3 -1 3 C-0.67 2.01 -0.34 1.02 0 0 Z " fill="#E98A88" transform="translate(204,255)"/>
<path d="M0 0 C0.268125 0.598125 0.53625 1.19625 0.8125 1.8125 C1.98493467 3.97224808 3.19369282 5.35790256 5 7 C2 8 2 8 -1.1875 6.5625 C-2.115625 6.046875 -3.04375 5.53125 -4 5 C-2.68 4.67 -1.36 4.34 0 4 C0 2.68 0 1.36 0 0 Z " fill="#EC4B4C" transform="translate(137,149)"/>
<path d="M0 0 C1.65 0 3.3 0 5 0 C5 1.32 5 2.64 5 4 C2.69 4 0.38 4 -2 4 C-1.34 2.68 -0.68 1.36 0 0 Z " fill="#EC4744" transform="translate(170,162)"/>
<path d="M0 0 C3.7952131 1.49097658 5.61042731 3.75700849 8 7 C7.34 7 6.68 7 6 7 C5.67 7.66 5.34 8.32 5 9 C4.5875 8.030625 4.175 7.06125 3.75 6.0625 C2.35100832 2.87739901 2.35100832 2.87739901 -0.1875 2.125 C-0.785625 2.08375 -1.38375 2.0425 -2 2 C-1.34 1.34 -0.68 0.68 0 0 Z " fill="#EA8687" transform="translate(152,66)"/>
<path d="M0 0 C0.33 1.32 0.66 2.64 1 4 C-1.31 5.65 -3.62 7.3 -6 9 C-6.66 8.67 -7.32 8.34 -8 8 C-5.36 5.36 -2.72 2.72 0 0 Z " fill="#EA8487" transform="translate(149,69)"/>
<path d="M0 0 C3.37503669 1.1858237 5.64722731 2.27573689 8 5 C6.25 5.75 6.25 5.75 4 6 C1.75 4.1875 1.75 4.1875 0 2 C0 1.34 0 0.68 0 0 Z " fill="#E5686C" transform="translate(122,29)"/>
<path d="M0 0 C2.27141109 0.11402064 4.54214552 0.24158505 6.8125 0.375 C8.07707031 0.44460937 9.34164062 0.51421875 10.64453125 0.5859375 C14 1 14 1 17 3 C13.25 4.125 13.25 4.125 11 3 C8.40751328 2.72824182 5.81551489 2.55427432 3.21484375 2.37890625 C2.48394531 2.25386719 1.75304687 2.12882812 1 2 C0.67 1.34 0.34 0.68 0 0 Z " fill="#E55B5A" transform="translate(99,23)"/>
<path d="M0 0 C4.75 0.75 4.75 0.75 7 3 C8.31747324 3.69748583 9.64914193 4.36959957 11 5 C7.75 5.3125 7.75 5.3125 4 5 C1.5625 2.5 1.5625 2.5 0 0 Z " fill="#E56668" transform="translate(186,253)"/>
<path d="M0 0 C0.2475 0.94875 0.495 1.8975 0.75 2.875 C1.6857077 6.08693191 1.6857077 6.08693191 4.125 7.375 C4.74375 7.58125 5.3625 7.7875 6 8 C0.375 8.25 0.375 8.25 -3 6 C-3.1875 3.375 -3.1875 3.375 -3 1 C-1 0 -1 0 0 0 Z " fill="#EC807F" transform="translate(108,244)"/>
<path d="M0 0 C-1.28519565 2.86697492 -2.57129254 4.97607712 -5 7 C-5.66 7 -6.32 7 -7 7 C-4.60526316 0 -4.60526316 0 0 0 Z " fill="#E87D7E" transform="translate(56,233)"/>
<path d="M0 0 C1.98 0.66 3.96 1.32 6 2 C5.38125 2.0825 4.7625 2.165 4.125 2.25 C1.84123036 2.81230192 1.84123036 2.81230192 0.75 4.9375 C-0.11391435 6.9474926 -0.11391435 6.9474926 0 9 C-0.66 9 -1.32 9 -2 9 C-2 7.02 -2 5.04 -2 3 C-1.34 3 -0.68 3 0 3 C0 2.01 0 1.02 0 0 Z " fill="#E46A6D" transform="translate(158,95)"/>
<path d="M0 0 C1.65 0 3.3 0 5 0 C5 0.66 5 1.32 5 2 C4.34 2.66 3.68 3.32 3 4 C2.67 4.99 2.34 5.98 2 7 C0.4375 5.75 0.4375 5.75 -1 4 C-0.6875 1.8125 -0.6875 1.8125 0 0 Z " fill="#EB6363" transform="translate(168,66)"/>
<path d="M0 0 C2.64 0 5.28 0 8 0 C8 0.66 8 1.32 8 2 C9.65 2 11.3 2 13 2 C13 2.33 13 2.66 13 3 C10.03 3 7.06 3 4 3 C4 2.34 4 1.68 4 1 C2.68 0.67 1.36 0.34 0 0 Z " fill="#EC3F41" transform="translate(224,242)"/>
<path d="M0 0 C2.97 0 5.94 0 9 0 C9 0.33 9 0.66 9 1 C8.21625 1.12375 7.4325 1.2475 6.625 1.375 C3.85942178 1.79117993 3.85942178 1.79117993 2 4 C1.01 4 0.02 4 -1 4 C-0.67 2.68 -0.34 1.36 0 0 Z " fill="#E94141" transform="translate(145,232)"/>
<path d="M0 0 C1.27875 -0.061875 2.5575 -0.12375 3.875 -0.1875 C4.95394531 -0.23970703 4.95394531 -0.23970703 6.0546875 -0.29296875 C6.69664063 -0.19628906 7.33859375 -0.09960938 8 0 C8.66 0.99 9.32 1.98 10 3 C6.37 2.67 2.74 2.34 -1 2 C-0.67 1.34 -0.34 0.68 0 0 Z " fill="#E57372" transform="translate(121,159)"/>
<path d="M0 0 C2.97 0.495 2.97 0.495 6 1 C6 1.99 6 2.98 6 4 C6.66 4.33 7.32 4.66 8 5 C7.34 5.66 6.68 6.32 6 7 C4.02 4.69 2.04 2.38 0 0 Z " fill="#E78681" transform="translate(205,107)"/>
<path d="M0 0 C1.2065625 0.0309375 1.2065625 0.0309375 2.4375 0.0625 C-1.00865385 4.8625 -1.00865385 4.8625 -3.8125 5.875 C-4.67875 5.9678125 -4.67875 5.9678125 -5.5625 6.0625 C-5.5625 5.4025 -5.5625 4.7425 -5.5625 4.0625 C-4.5725 4.0625 -3.5825 4.0625 -2.5625 4.0625 C-2.8925 3.0725 -3.2225 2.0825 -3.5625 1.0625 C-2.5625 0.0625 -2.5625 0.0625 0 0 Z " fill="#E9797A" transform="translate(128.5625,76.9375)"/>
<path d="M0 0 C1.32 0 2.64 0 4 0 C4.33 1.65 4.66 3.3 5 5 C3.35 4.67 1.7 4.34 0 4 C0 2.68 0 1.36 0 0 Z " fill="#363636" transform="translate(120,274)"/>
<path d="M0 0 C1.66611905 -0.042721 3.33382885 -0.04063832 5 0 C6 1 6 1 6.0625 3.5625 C6.041875 4.366875 6.02125 5.17125 6 6 C3.97945196 4.35830472 1.97956942 2.69088222 0 1 C0 0.67 0 0.34 0 0 Z " fill="#EC6F73" transform="translate(173,140)"/>
<path d="M0 0 C3 1 3 1 4 3 C4.1875 6.5 4.1875 6.5 4 10 C3.34 10.66 2.68 11.32 2 12 C2 9.36 2 6.72 2 4 C1.34 3.67 0.68 3.34 0 3 C0 2.01 0 1.02 0 0 Z " fill="#DF7C7A" transform="translate(79,111)"/>
<path d="M0 0 C1.875 0.3125 1.875 0.3125 4 1 C4.66 1.99 5.32 2.98 6 4 C3.69 4 1.38 4 -1 4 C-0.67 2.68 -0.34 1.36 0 0 Z " fill="#EB5755" transform="translate(158,73)"/>
<path d="M0 0 C3 2 3 2 4 5 C4.66 5.66 5.32 6.32 6 7 C3 7 3 7 1.61328125 5.6875 C0.40885417 4.125 -0.79557292 2.5625 -2 1 C-1.34 0.67 -0.68 0.34 0 0 Z " fill="#E57B7C" transform="translate(156,55)"/>
<path d="M0 0 C0.66 0.33 1.32 0.66 2 1 C0.8125 3.5 0.8125 3.5 -1 6 C-3.6875 6.3125 -3.6875 6.3125 -6 6 C-4 4 -2 2 0 0 Z " fill="#EB797B" transform="translate(148,32)"/>
<path d="M0 0 C0.99 0 1.98 0 3 0 C3.33 2.97 3.66 5.94 4 9 C1.49701566 6.06171403 0.53069061 3.82097239 0 0 Z " fill="#E97D7D" transform="translate(16,241)"/>
<path d="M0 0 C-0.8353125 0.1546875 -0.8353125 0.1546875 -1.6875 0.3125 C-4.44176578 1.13133577 -6.58727657 2.45853781 -9 4 C-9.33 2.68 -9.66 1.36 -10 0 C-6.30458414 -0.95024979 -3.69541586 -0.95024979 0 0 Z " fill="#E98284" transform="translate(67,239)"/>
<path d="M0 0 C2.18975773 3.28463659 2.99806563 6.20696275 4 10 C2.68 9.34 1.36 8.68 0 8 C0 5.36 0 2.72 0 0 Z " fill="#E98482" transform="translate(19,222)"/>
<path d="M0 0 C0.66 0 1.32 0 2 0 C3.60355101 3.50776784 4.22036864 6.14354879 4 10 C1.7448078 7.7448078 1.02276532 5.9952413 0 3 C0 2.01 0 1.02 0 0 Z " fill="#EB8285" transform="translate(7,219)"/>
<path d="M0 0 C3.08669204 3.08669204 3.44855089 3.91927658 4 8 C3.01 8.66 2.02 9.32 1 10 C0.67 6.7 0.34 3.4 0 0 Z " fill="#E84140" transform="translate(140,161)"/>
<path d="M0 0 C2.97 0.33 5.94 0.66 9 1 C8.67 2.32 8.34 3.64 8 5 C2.25 3.375 2.25 3.375 0 0 Z " fill="#ED5054" transform="translate(184,118)"/>
<path d="M0 0 C3 1 3 1 4.1875 3.0625 C4.455625 3.701875 4.72375 4.34125 5 5 C4.01 5.33 3.02 5.66 2 6 C2 5.01 2 4.02 2 3 C1.01 3.33 0.02 3.66 -1 4 C-1.33 3.01 -1.66 2.02 -2 1 C-1.34 0.67 -0.68 0.34 0 0 Z " fill="#EC4142" transform="translate(152,68)"/>
<path d="M0 0 C3.26460973 1.80412643 4.88929795 2.83394693 7 6 C4.03 5.505 4.03 5.505 1 5 C0.67 3.35 0.34 1.7 0 0 Z " fill="#E97B7E" transform="translate(216,34)"/>
<path d="M0 0 C1.32 1.65 2.64 3.3 4 5 C2.35 5.33 0.7 5.66 -1 6 C-1.33 5.34 -1.66 4.68 -2 4 C-1.0625 1.875 -1.0625 1.875 0 0 Z " fill="#E76668" transform="translate(192,246)"/>
<path d="M0 0 C0.66 0 1.32 0 2 0 C2.33 2.64 2.66 5.28 3 8 C2.01 8 1.02 8 0 8 C0 5.36 0 2.72 0 0 Z " fill="#DD6064" transform="translate(61,121)"/>
<path d="M0 0 C1.98 0.66 3.96 1.32 6 2 C6.33 3.65 6.66 5.3 7 7 C5.83040013 6.02433888 4.66438823 5.044375 3.5 4.0625 C2.8503125 3.51722656 2.200625 2.97195312 1.53125 2.41015625 C1.0259375 1.94480469 0.520625 1.47945313 0 1 C0 0.67 0 0.34 0 0 Z " fill="#EA6F74" transform="translate(151,118)"/>
<path d="M0 0 C1.32 0.66 2.64 1.32 4 2 C2.68 3.32 1.36 4.64 0 6 C-0.99 4.68 -1.98 3.36 -3 2 C-2.01 1.34 -1.02 0.68 0 0 Z " fill="#F1595A" transform="translate(150,112)"/>
<path d="M0 0 C0.66 0.66 1.32 1.32 2 2 C1.34 2 0.68 2 0 2 C0.33 3.98 0.66 5.96 1 8 C0.01 7.67 -0.98 7.34 -2 7 C-2.6875 4.9375 -2.6875 4.9375 -3 3 C-2.34 3 -1.68 3 -1 3 C-0.67 2.01 -0.34 1.02 0 0 Z " fill="#E95455" transform="translate(85,98)"/>
<path d="M0 0 C0.33 0.66 0.66 1.32 1 2 C-0.98 4.97 -0.98 4.97 -3 8 C-3.99 7.34 -4.98 6.68 -6 6 C-4.02 4.02 -2.04 2.04 0 0 Z " fill="#EA7374" transform="translate(140,78)"/>
<path d="M0 0 C1.5625 1.125 1.5625 1.125 3 3 C2.6875 6.1875 2.6875 6.1875 2 9 C1.34 8.67 0.68 8.34 0 8 C-0.6875 4.5 -0.6875 4.5 -1 1 C-0.67 0.67 -0.34 0.34 0 0 Z " fill="#F05557" transform="translate(179,74)"/>
<path d="M0 0 C2.11180592 2.57089417 3.66306057 4.63060567 4 8 C3.34 8.66 2.68 9.32 2 10 C0.68373308 6.38026598 0 3.90432869 0 0 Z " fill="#E7686C" transform="translate(230,51)"/>
<path d="M0 0 C2.97 0.495 2.97 0.495 6 1 C5.67 1.99 5.34 2.98 5 4 C3.35 4 1.7 4 0 4 C0 2.66666667 0 1.33333333 0 0 Z " fill="#757575" transform="translate(65,273)"/>
<path d="M0 0 C-0.33 0.99 -0.66 1.98 -1 3 C-3.31 3 -5.62 3 -8 3 C-8 2.34 -8 1.68 -8 1 C-2.25 0 -2.25 0 0 0 Z " fill="#E16366" transform="translate(122,178)"/>
<path d="M0 0 C4.875 1.875 4.875 1.875 6 3 C6.04063832 4.66617115 6.042721 6.33388095 6 8 C3.87961365 5.38485683 1.86908256 2.80362384 0 0 Z " fill="#EB8384" transform="translate(117,137)"/>
<path d="M0 0 C0.33 0 0.66 0 1 0 C0.6875 3.375 0.6875 3.375 0 7 C-0.99 7.66 -1.98 8.32 -3 9 C-3 7.68 -3 6.36 -3 5 C-2.34 5 -1.68 5 -1 5 C-0.67 3.35 -0.34 1.7 0 0 Z " fill="#EA7F82" transform="translate(210,124)"/>
<path d="M0 0 C2.64 0 5.28 0 8 0 C7.67 0.66 7.34 1.32 7 2 C6.195625 2.144375 5.39125 2.28875 4.5625 2.4375 C1.65559342 2.76502717 1.65559342 2.76502717 0 6 C0 4.02 0 2.04 0 0 Z " fill="#ED7D7C" transform="translate(121,127)"/>
<path d="M0 0 C2.31 0.33 4.62 0.66 7 1 C4.38058783 2.74627478 2.96175123 3.38722388 0 4 C0 2.68 0 1.36 0 0 Z " fill="#EA716E" transform="translate(66,101)"/>
<path d="M0 0 C2.97 0.495 2.97 0.495 6 1 C6 2.65 6 4.3 6 6 C3.97945196 4.35830472 1.97956942 2.69088222 0 1 C0 0.67 0 0.34 0 0 Z " fill="#E78985" transform="translate(189,91)"/>
<path d="M0 0 C3.37503669 1.1858237 5.64722731 2.27573689 8 5 C4.5625 4.1875 4.5625 4.1875 1 3 C0.67 2.01 0.34 1.02 0 0 Z " fill="#E97877" transform="translate(208,29)"/>
</svg>
